<svg width="16" height="16" viewBox="0 0 16 16" fill="none" xmlns="http://www.w3.org/2000/svg">
<path fill-rule="evenodd" clip-rule="evenodd" d="M10 2C10 1.44772 10.4477 1 11 1C11.5523 1 12 1.44772 12 2V3C13.1046 3 14 3.89543 14 5V7H2V5C2 3.89543 2.89543 3 4 3L4 2C4 1.44772 4.44772 1 5 1C5.55228 1 6 1.44772 6 2V3H10V2ZM2 8H14V12C14 13.1046 13.1046 14 12 14H4C2.89543 14 2 13.1046 2 12V8ZM6 11C6 11.5523 5.55228 12 5 12C4.44772 12 4 11.5523 4 11C4 10.4477 4.44772 10 5 10C5.55228 10 6 10.4477 6 11Z" fill="#9DA1AF"/>
</svg>
