<svg width="960" height="2" viewBox="0 0 960 2" fill="none" xmlns="http://www.w3.org/2000/svg">
<path fill-rule="evenodd" clip-rule="evenodd" d="M0.00499168 2H0V0H0.00499168C0.557276 0 1.00499 0.447715 1.00499 1C1.00499 1.55228 0.557276 2 0.00499168 2ZM4.99501 1C4.99501 0.447715 5.44272 0 5.99501 0H6.00499C6.55728 0 7.00499 0.447715 7.00499 1C7.00499 1.55228 6.55728 2 6.00499 2H5.99501C5.44272 2 4.99501 1.55228 4.99501 1ZM10.995 1C10.995 0.447715 11.4427 0 11.995 0H12.005C12.5573 0 13.005 0.447715 13.005 1C13.005 1.55228 12.5573 2 12.005 2H11.995C11.4427 2 10.995 1.55228 10.995 1ZM16.995 1C16.995 0.447715 17.4427 0 17.995 0H18.005C18.5573 0 19.005 0.447715 19.005 1C19.005 1.55228 18.5573 2 18.005 2H17.995C17.4427 2 16.995 1.55228 16.995 1ZM22.995 1C22.995 0.447715 23.4427 0 23.995 0H24.005C24.5573 0 25.005 0.447715 25.005 1C25.005 1.55228 24.5573 2 24.005 2H23.995C23.4427 2 22.995 1.55228 22.995 1ZM28.995 1C28.995 0.447715 29.4427 0 29.995 0H30.005C30.5573 0 31.005 0.447715 31.005 1C31.005 1.55228 30.5573 2 30.005 2H29.995C29.4427 2 28.995 1.55228 28.995 1ZM34.995 1C34.995 0.447715 35.4427 0 35.995 0H36.005C36.5573 0 37.005 0.447715 37.005 1C37.005 1.55228 36.5573 2 36.005 2H35.995C35.4427 2 34.995 1.55228 34.995 1ZM40.995 1C40.995 0.447715 41.4427 0 41.995 0H42.005C42.5573 0 43.005 0.447715 43.005 1C43.005 1.55228 42.5573 2 42.005 2H41.995C41.4427 2 40.995 1.55228 40.995 1ZM46.995 1C46.995 0.447715 47.4427 0 47.995 0H48.005C48.5573 0 49.005 0.447715 49.005 1C49.005 1.55228 48.5573 2 48.005 2H47.995C47.4427 2 46.995 1.55228 46.995 1ZM52.995 1C52.995 0.447715 53.4427 0 53.995 0H54.005C54.5573 0 55.005 0.447715 55.005 1C55.005 1.55228 54.5573 2 54.005 2H53.995C53.4427 2 52.995 1.55228 52.995 1ZM58.995 1C58.995 0.447715 59.4427 0 59.995 0H60.005C60.5573 0 61.005 0.447715 61.005 1C61.005 1.55228 60.5573 2 60.005 2H59.995C59.4427 2 58.995 1.55228 58.995 1ZM64.995 1C64.995 0.447715 65.4427 0 65.995 0H66.005C66.5573 0 67.005 0.447715 67.005 1C67.005 1.55228 66.5573 2 66.005 2H65.995C65.4427 2 64.995 1.55228 64.995 1ZM70.995 1C70.995 0.447715 71.4427 0 71.995 0H72.005C72.5573 0 73.005 0.447715 73.005 1C73.005 1.55228 72.5573 2 72.005 2H71.995C71.4427 2 70.995 1.55228 70.995 1ZM76.995 1C76.995 0.447715 77.4427 0 77.995 0H78.005C78.5573 0 79.005 0.447715 79.005 1C79.005 1.55228 78.5573 2 78.005 2H77.995C77.4427 2 76.995 1.55228 76.995 1ZM82.995 1C82.995 0.447715 83.4427 0 83.995 0H84.005C84.5573 0 85.005 0.447715 85.005 1C85.005 1.55228 84.5573 2 84.005 2H83.995C83.4427 2 82.995 1.55228 82.995 1ZM88.995 1C88.995 0.447715 89.4427 0 89.995 0H90.005C90.5573 0 91.005 0.447715 91.005 1C91.005 1.55228 90.5573 2 90.005 2H89.995C89.4427 2 88.995 1.55228 88.995 1ZM94.995 1C94.995 0.447715 95.4427 0 95.995 0H96.005C96.5573 0 97.005 0.447715 97.005 1C97.005 1.55228 96.5573 2 96.005 2H95.995C95.4427 2 94.995 1.55228 94.995 1ZM100.995 1C100.995 0.447715 101.443 0 101.995 0H102.005C102.557 0 103.005 0.447715 103.005 1C103.005 1.55228 102.557 2 102.005 2H101.995C101.443 2 100.995 1.55228 100.995 1ZM106.995 1C106.995 0.447715 107.443 0 107.995 0H108.005C108.557 0 109.005 0.447715 109.005 1C109.005 1.55228 108.557 2 108.005 2H107.995C107.443 2 106.995 1.55228 106.995 1ZM112.995 1C112.995 0.447715 113.443 0 113.995 0H114.005C114.557 0 115.005 0.447715 115.005 1C115.005 1.55228 114.557 2 114.005 2H113.995C113.443 2 112.995 1.55228 112.995 1ZM118.995 1C118.995 0.447715 119.443 0 119.995 0H120.005C120.557 0 121.005 0.447715 121.005 1C121.005 1.55228 120.557 2 120.005 2H119.995C119.443 2 118.995 1.55228 118.995 1ZM124.995 1C124.995 0.447715 125.443 0 125.995 0H126.005C126.557 0 127.005 0.447715 127.005 1C127.005 1.55228 126.557 2 126.005 2H125.995C125.443 2 124.995 1.55228 124.995 1ZM130.995 1C130.995 0.447715 131.443 0 131.995 0H132.005C132.557 0 133.005 0.447715 133.005 1C133.005 1.55228 132.557 2 132.005 2H131.995C131.443 2 130.995 1.55228 130.995 1ZM136.995 1C136.995 0.447715 137.443 0 137.995 0H138.005C138.557 0 139.005 0.447715 139.005 1C139.005 1.55228 138.557 2 138.005 2H137.995C137.443 2 136.995 1.55228 136.995 1ZM142.995 1C142.995 0.447715 143.443 0 143.995 0H144.005C144.557 0 145.005 0.447715 145.005 1C145.005 1.55228 144.557 2 144.005 2H143.995C143.443 2 142.995 1.55228 142.995 1ZM148.995 1C148.995 0.447715 149.443 0 149.995 0H150.005C150.557 0 151.005 0.447715 151.005 1C151.005 1.55228 150.557 2 150.005 2H149.995C149.443 2 148.995 1.55228 148.995 1ZM154.995 1C154.995 0.447715 155.443 0 155.995 0H156.005C156.557 0 157.005 0.447715 157.005 1C157.005 1.55228 156.557 2 156.005 2H155.995C155.443 2 154.995 1.55228 154.995 1ZM160.995 1C160.995 0.447715 161.443 0 161.995 0H162.005C162.557 0 163.005 0.447715 163.005 1C163.005 1.55228 162.557 2 162.005 2H161.995C161.443 2 160.995 1.55228 160.995 1ZM166.995 1C166.995 0.447715 167.443 0 167.995 0H168.005C168.557 0 169.005 0.447715 169.005 1C169.005 1.55228 168.557 2 168.005 2H167.995C167.443 2 166.995 1.55228 166.995 1ZM172.995 1C172.995 0.447715 173.443 0 173.995 0H174.005C174.557 0 175.005 0.447715 175.005 1C175.005 1.55228 174.557 2 174.005 2H173.995C173.443 2 172.995 1.55228 172.995 1ZM178.995 1C178.995 0.447715 179.443 0 179.995 0H180.005C180.557 0 181.005 0.447715 181.005 1C181.005 1.55228 180.557 2 180.005 2H179.995C179.443 2 178.995 1.55228 178.995 1ZM184.995 1C184.995 0.447715 185.443 0 185.995 0H186.005C186.557 0 187.005 0.447715 187.005 1C187.005 1.55228 186.557 2 186.005 2H185.995C185.443 2 184.995 1.55228 184.995 1ZM190.995 1C190.995 0.447715 191.443 0 191.995 0H192.005C192.557 0 193.005 0.447715 193.005 1C193.005 1.55228 192.557 2 192.005 2H191.995C191.443 2 190.995 1.55228 190.995 1ZM196.995 1C196.995 0.447715 197.443 0 197.995 0H198.005C198.557 0 199.005 0.447715 199.005 1C199.005 1.55228 198.557 2 198.005 2H197.995C197.443 2 196.995 1.55228 196.995 1ZM202.995 1C202.995 0.447715 203.443 0 203.995 0H204.005C204.557 0 205.005 0.447715 205.005 1C205.005 1.55228 204.557 2 204.005 2H203.995C203.443 2 202.995 1.55228 202.995 1ZM208.995 1C208.995 0.447715 209.443 0 209.995 0H210.005C210.557 0 211.005 0.447715 211.005 1C211.005 1.55228 210.557 2 210.005 2H209.995C209.443 2 208.995 1.55228 208.995 1ZM214.995 1C214.995 0.447715 215.443 0 215.995 0H216.005C216.557 0 217.005 0.447715 217.005 1C217.005 1.55228 216.557 2 216.005 2H215.995C215.443 2 214.995 1.55228 214.995 1ZM220.995 1C220.995 0.447715 221.443 0 221.995 0H222.005C222.557 0 223.005 0.447715 223.005 1C223.005 1.55228 222.557 2 222.005 2H221.995C221.443 2 220.995 1.55228 220.995 1ZM226.995 1C226.995 0.447715 227.443 0 227.995 0H228.005C228.557 0 229.005 0.447715 229.005 1C229.005 1.55228 228.557 2 228.005 2H227.995C227.443 2 226.995 1.55228 226.995 1ZM232.995 1C232.995 0.447715 233.443 0 233.995 0H234.005C234.557 0 235.005 0.447715 235.005 1C235.005 1.55228 234.557 2 234.005 2H233.995C233.443 2 232.995 1.55228 232.995 1ZM238.995 1C238.995 0.447715 239.443 0 239.995 0H240.005C240.557 0 241.005 0.447715 241.005 1C241.005 1.55228 240.557 2 240.005 2H239.995C239.443 2 238.995 1.55228 238.995 1ZM244.995 1C244.995 0.447715 245.443 0 245.995 0H246.005C246.557 0 247.005 0.447715 247.005 1C247.005 1.55228 246.557 2 246.005 2H245.995C245.443 2 244.995 1.55228 244.995 1ZM250.995 1C250.995 0.447715 251.443 0 251.995 0H252.005C252.557 0 253.005 0.447715 253.005 1C253.005 1.55228 252.557 2 252.005 2H251.995C251.443 2 250.995 1.55228 250.995 1ZM256.995 1C256.995 0.447715 257.443 0 257.995 0H258.005C258.557 0 259.005 0.447715 259.005 1C259.005 1.55228 258.557 2 258.005 2H257.995C257.443 2 256.995 1.55228 256.995 1ZM262.995 1C262.995 0.447715 263.443 0 263.995 0H264.005C264.557 0 265.005 0.447715 265.005 1C265.005 1.55228 264.557 2 264.005 2H263.995C263.443 2 262.995 1.55228 262.995 1ZM268.995 1C268.995 0.447715 269.443 0 269.995 0H270.005C270.557 0 271.005 0.447715 271.005 1C271.005 1.55228 270.557 2 270.005 2H269.995C269.443 2 268.995 1.55228 268.995 1ZM274.995 1C274.995 0.447715 275.443 0 275.995 0H276.005C276.557 0 277.005 0.447715 277.005 1C277.005 1.55228 276.557 2 276.005 2H275.995C275.443 2 274.995 1.55228 274.995 1ZM280.995 1C280.995 0.447715 281.443 0 281.995 0H282.005C282.557 0 283.005 0.447715 283.005 1C283.005 1.55228 282.557 2 282.005 2H281.995C281.443 2 280.995 1.55228 280.995 1ZM286.995 1C286.995 0.447715 287.443 0 287.995 0H288.005C288.557 0 289.005 0.447715 289.005 1C289.005 1.55228 288.557 2 288.005 2H287.995C287.443 2 286.995 1.55228 286.995 1ZM292.995 1C292.995 0.447715 293.443 0 293.995 0H294.005C294.557 0 295.005 0.447715 295.005 1C295.005 1.55228 294.557 2 294.005 2H293.995C293.443 2 292.995 1.55228 292.995 1ZM298.995 1C298.995 0.447715 299.443 0 299.995 0H300.005C300.557 0 301.005 0.447715 301.005 1C301.005 1.55228 300.557 2 300.005 2H299.995C299.443 2 298.995 1.55228 298.995 1ZM304.995 1C304.995 0.447715 305.443 0 305.995 0H306.005C306.557 0 307.005 0.447715 307.005 1C307.005 1.55228 306.557 2 306.005 2H305.995C305.443 2 304.995 1.55228 304.995 1ZM310.995 1C310.995 0.447715 311.443 0 311.995 0H312.005C312.557 0 313.005 0.447715 313.005 1C313.005 1.55228 312.557 2 312.005 2H311.995C311.443 2 310.995 1.55228 310.995 1ZM316.995 1C316.995 0.447715 317.443 0 317.995 0H318.005C318.557 0 319.005 0.447715 319.005 1C319.005 1.55228 318.557 2 318.005 2H317.995C317.443 2 316.995 1.55228 316.995 1ZM322.995 1C322.995 0.447715 323.443 0 323.995 0H324.005C324.557 0 325.005 0.447715 325.005 1C325.005 1.55228 324.557 2 324.005 2H323.995C323.443 2 322.995 1.55228 322.995 1ZM328.995 1C328.995 0.447715 329.443 0 329.995 0H330.005C330.557 0 331.005 0.447715 331.005 1C331.005 1.55228 330.557 2 330.005 2H329.995C329.443 2 328.995 1.55228 328.995 1ZM334.995 1C334.995 0.447715 335.443 0 335.995 0H336.005C336.557 0 337.005 0.447715 337.005 1C337.005 1.55228 336.557 2 336.005 2H335.995C335.443 2 334.995 1.55228 334.995 1ZM340.995 1C340.995 0.447715 341.443 0 341.995 0H342.005C342.557 0 343.005 0.447715 343.005 1C343.005 1.55228 342.557 2 342.005 2H341.995C341.443 2 340.995 1.55228 340.995 1ZM346.995 1C346.995 0.447715 347.443 0 347.995 0H348.005C348.557 0 349.005 0.447715 349.005 1C349.005 1.55228 348.557 2 348.005 2H347.995C347.443 2 346.995 1.55228 346.995 1ZM352.995 1C352.995 0.447715 353.443 0 353.995 0H354.005C354.557 0 355.005 0.447715 355.005 1C355.005 1.55228 354.557 2 354.005 2H353.995C353.443 2 352.995 1.55228 352.995 1ZM358.995 1C358.995 0.447715 359.443 0 359.995 0H360.005C360.557 0 361.005 0.447715 361.005 1C361.005 1.55228 360.557 2 360.005 2H359.995C359.443 2 358.995 1.55228 358.995 1ZM364.995 1C364.995 0.447715 365.443 0 365.995 0H366.005C366.557 0 367.005 0.447715 367.005 1C367.005 1.55228 366.557 2 366.005 2H365.995C365.443 2 364.995 1.55228 364.995 1ZM370.995 1C370.995 0.447715 371.443 0 371.995 0H372.005C372.557 0 373.005 0.447715 373.005 1C373.005 1.55228 372.557 2 372.005 2H371.995C371.443 2 370.995 1.55228 370.995 1ZM376.995 1C376.995 0.447715 377.443 0 377.995 0H378.005C378.557 0 379.005 0.447715 379.005 1C379.005 1.55228 378.557 2 378.005 2H377.995C377.443 2 376.995 1.55228 376.995 1ZM382.995 1C382.995 0.447715 383.443 0 383.995 0H384.005C384.557 0 385.005 0.447715 385.005 1C385.005 1.55228 384.557 2 384.005 2H383.995C383.443 2 382.995 1.55228 382.995 1ZM388.995 1C388.995 0.447715 389.443 0 389.995 0H390.005C390.557 0 391.005 0.447715 391.005 1C391.005 1.55228 390.557 2 390.005 2H389.995C389.443 2 388.995 1.55228 388.995 1ZM394.995 1C394.995 0.447715 395.443 0 395.995 0H396.005C396.557 0 397.005 0.447715 397.005 1C397.005 1.55228 396.557 2 396.005 2H395.995C395.443 2 394.995 1.55228 394.995 1ZM400.995 1C400.995 0.447715 401.443 0 401.995 0H402.005C402.557 0 403.005 0.447715 403.005 1C403.005 1.55228 402.557 2 402.005 2H401.995C401.443 2 400.995 1.55228 400.995 1ZM406.995 1C406.995 0.447715 407.443 0 407.995 0H408.005C408.557 0 409.005 0.447715 409.005 1C409.005 1.55228 408.557 2 408.005 2H407.995C407.443 2 406.995 1.55228 406.995 1ZM412.995 1C412.995 0.447715 413.443 0 413.995 0H414.005C414.557 0 415.005 0.447715 415.005 1C415.005 1.55228 414.557 2 414.005 2H413.995C413.443 2 412.995 1.55228 412.995 1ZM418.995 1C418.995 0.447715 419.443 0 419.995 0H420.005C420.557 0 421.005 0.447715 421.005 1C421.005 1.55228 420.557 2 420.005 2H419.995C419.443 2 418.995 1.55228 418.995 1ZM424.995 1C424.995 0.447715 425.443 0 425.995 0H426.005C426.557 0 427.005 0.447715 427.005 1C427.005 1.55228 426.557 2 426.005 2H425.995C425.443 2 424.995 1.55228 424.995 1ZM430.995 1C430.995 0.447715 431.443 0 431.995 0H432.005C432.557 0 433.005 0.447715 433.005 1C433.005 1.55228 432.557 2 432.005 2H431.995C431.443 2 430.995 1.55228 430.995 1ZM436.995 1C436.995 0.447715 437.443 0 437.995 0H438.005C438.557 0 439.005 0.447715 439.005 1C439.005 1.55228 438.557 2 438.005 2H437.995C437.443 2 436.995 1.55228 436.995 1ZM442.995 1C442.995 0.447715 443.443 0 443.995 0H444.005C444.557 0 445.005 0.447715 445.005 1C445.005 1.55228 444.557 2 444.005 2H443.995C443.443 2 442.995 1.55228 442.995 1ZM448.995 1C448.995 0.447715 449.443 0 449.995 0H450.005C450.557 0 451.005 0.447715 451.005 1C451.005 1.55228 450.557 2 450.005 2H449.995C449.443 2 448.995 1.55228 448.995 1ZM454.995 1C454.995 0.447715 455.443 0 455.995 0H456.005C456.557 0 457.005 0.447715 457.005 1C457.005 1.55228 456.557 2 456.005 2H455.995C455.443 2 454.995 1.55228 454.995 1ZM460.995 1C460.995 0.447715 461.443 0 461.995 0H462.005C462.557 0 463.005 0.447715 463.005 1C463.005 1.55228 462.557 2 462.005 2H461.995C461.443 2 460.995 1.55228 460.995 1ZM466.995 1C466.995 0.447715 467.443 0 467.995 0H468.005C468.557 0 469.005 0.447715 469.005 1C469.005 1.55228 468.557 2 468.005 2H467.995C467.443 2 466.995 1.55228 466.995 1ZM472.995 1C472.995 0.447715 473.443 0 473.995 0H474.005C474.557 0 475.005 0.447715 475.005 1C475.005 1.55228 474.557 2 474.005 2H473.995C473.443 2 472.995 1.55228 472.995 1ZM478.995 1C478.995 0.447715 479.443 0 479.995 0H480.005C480.557 0 481.005 0.447715 481.005 1C481.005 1.55228 480.557 2 480.005 2H479.995C479.443 2 478.995 1.55228 478.995 1ZM484.995 1C484.995 0.447715 485.443 0 485.995 0H486.005C486.557 0 487.005 0.447715 487.005 1C487.005 1.55228 486.557 2 486.005 2H485.995C485.443 2 484.995 1.55228 484.995 1ZM490.995 1C490.995 0.447715 491.443 0 491.995 0H492.005C492.557 0 493.005 0.447715 493.005 1C493.005 1.55228 492.557 2 492.005 2H491.995C491.443 2 490.995 1.55228 490.995 1ZM496.995 1C496.995 0.447715 497.443 0 497.995 0H498.005C498.557 0 499.005 0.447715 499.005 1C499.005 1.55228 498.557 2 498.005 2H497.995C497.443 2 496.995 1.55228 496.995 1ZM502.995 1C502.995 0.447715 503.443 0 503.995 0H504.005C504.557 0 505.005 0.447715 505.005 1C505.005 1.55228 504.557 2 504.005 2H503.995C503.443 2 502.995 1.55228 502.995 1ZM508.995 1C508.995 0.447715 509.443 0 509.995 0H510.005C510.557 0 511.005 0.447715 511.005 1C511.005 1.55228 510.557 2 510.005 2H509.995C509.443 2 508.995 1.55228 508.995 1ZM514.995 1C514.995 0.447715 515.443 0 515.995 0H516.005C516.557 0 517.005 0.447715 517.005 1C517.005 1.55228 516.557 2 516.005 2H515.995C515.443 2 514.995 1.55228 514.995 1ZM520.995 1C520.995 0.447715 521.443 0 521.995 0H522.005C522.557 0 523.005 0.447715 523.005 1C523.005 1.55228 522.557 2 522.005 2H521.995C521.443 2 520.995 1.55228 520.995 1ZM526.995 1C526.995 0.447715 527.443 0 527.995 0H528.005C528.557 0 529.005 0.447715 529.005 1C529.005 1.55228 528.557 2 528.005 2H527.995C527.443 2 526.995 1.55228 526.995 1ZM532.995 1C532.995 0.447715 533.443 0 533.995 0H534.005C534.557 0 535.005 0.447715 535.005 1C535.005 1.55228 534.557 2 534.005 2H533.995C533.443 2 532.995 1.55228 532.995 1ZM538.995 1C538.995 0.447715 539.443 0 539.995 0H540.005C540.557 0 541.005 0.447715 541.005 1C541.005 1.55228 540.557 2 540.005 2H539.995C539.443 2 538.995 1.55228 538.995 1ZM544.995 1C544.995 0.447715 545.443 0 545.995 0H546.005C546.557 0 547.005 0.447715 547.005 1C547.005 1.55228 546.557 2 546.005 2H545.995C545.443 2 544.995 1.55228 544.995 1ZM550.995 1C550.995 0.447715 551.443 0 551.995 0H552.005C552.557 0 553.005 0.447715 553.005 1C553.005 1.55228 552.557 2 552.005 2H551.995C551.443 2 550.995 1.55228 550.995 1ZM556.995 1C556.995 0.447715 557.443 0 557.995 0H558.005C558.557 0 559.005 0.447715 559.005 1C559.005 1.55228 558.557 2 558.005 2H557.995C557.443 2 556.995 1.55228 556.995 1ZM562.995 1C562.995 0.447715 563.443 0 563.995 0H564.005C564.557 0 565.005 0.447715 565.005 1C565.005 1.55228 564.557 2 564.005 2H563.995C563.443 2 562.995 1.55228 562.995 1ZM568.995 1C568.995 0.447715 569.443 0 569.995 0H570.005C570.557 0 571.005 0.447715 571.005 1C571.005 1.55228 570.557 2 570.005 2H569.995C569.443 2 568.995 1.55228 568.995 1ZM574.995 1C574.995 0.447715 575.443 0 575.995 0H576.005C576.557 0 577.005 0.447715 577.005 1C577.005 1.55228 576.557 2 576.005 2H575.995C575.443 2 574.995 1.55228 574.995 1ZM580.995 1C580.995 0.447715 581.443 0 581.995 0H582.005C582.557 0 583.005 0.447715 583.005 1C583.005 1.55228 582.557 2 582.005 2H581.995C581.443 2 580.995 1.55228 580.995 1ZM586.995 1C586.995 0.447715 587.443 0 587.995 0H588.005C588.557 0 589.005 0.447715 589.005 1C589.005 1.55228 588.557 2 588.005 2H587.995C587.443 2 586.995 1.55228 586.995 1ZM592.995 1C592.995 0.447715 593.443 0 593.995 0H594.005C594.557 0 595.005 0.447715 595.005 1C595.005 1.55228 594.557 2 594.005 2H593.995C593.443 2 592.995 1.55228 592.995 1ZM598.995 1C598.995 0.447715 599.443 0 599.995 0H600.005C600.557 0 601.005 0.447715 601.005 1C601.005 1.55228 600.557 2 600.005 2H599.995C599.443 2 598.995 1.55228 598.995 1ZM604.995 1C604.995 0.447715 605.443 0 605.995 0H606.005C606.557 0 607.005 0.447715 607.005 1C607.005 1.55228 606.557 2 606.005 2H605.995C605.443 2 604.995 1.55228 604.995 1ZM610.995 1C610.995 0.447715 611.443 0 611.995 0H612.005C612.557 0 613.005 0.447715 613.005 1C613.005 1.55228 612.557 2 612.005 2H611.995C611.443 2 610.995 1.55228 610.995 1ZM616.995 1C616.995 0.447715 617.443 0 617.995 0H618.005C618.557 0 619.005 0.447715 619.005 1C619.005 1.55228 618.557 2 618.005 2H617.995C617.443 2 616.995 1.55228 616.995 1ZM622.995 1C622.995 0.447715 623.443 0 623.995 0H624.005C624.557 0 625.005 0.447715 625.005 1C625.005 1.55228 624.557 2 624.005 2H623.995C623.443 2 622.995 1.55228 622.995 1ZM628.995 1C628.995 0.447715 629.443 0 629.995 0H630.005C630.557 0 631.005 0.447715 631.005 1C631.005 1.55228 630.557 2 630.005 2H629.995C629.443 2 628.995 1.55228 628.995 1ZM634.995 1C634.995 0.447715 635.443 0 635.995 0H636.005C636.557 0 637.005 0.447715 637.005 1C637.005 1.55228 636.557 2 636.005 2H635.995C635.443 2 634.995 1.55228 634.995 1ZM640.995 1C640.995 0.447715 641.443 0 641.995 0H642.005C642.557 0 643.005 0.447715 643.005 1C643.005 1.55228 642.557 2 642.005 2H641.995C641.443 2 640.995 1.55228 640.995 1ZM646.995 1C646.995 0.447715 647.443 0 647.995 0H648.005C648.557 0 649.005 0.447715 649.005 1C649.005 1.55228 648.557 2 648.005 2H647.995C647.443 2 646.995 1.55228 646.995 1ZM652.995 1C652.995 0.447715 653.443 0 653.995 0H654.005C654.557 0 655.005 0.447715 655.005 1C655.005 1.55228 654.557 2 654.005 2H653.995C653.443 2 652.995 1.55228 652.995 1ZM658.995 1C658.995 0.447715 659.443 0 659.995 0H660.005C660.557 0 661.005 0.447715 661.005 1C661.005 1.55228 660.557 2 660.005 2H659.995C659.443 2 658.995 1.55228 658.995 1ZM664.995 1C664.995 0.447715 665.443 0 665.995 0H666.005C666.557 0 667.005 0.447715 667.005 1C667.005 1.55228 666.557 2 666.005 2H665.995C665.443 2 664.995 1.55228 664.995 1ZM670.995 1C670.995 0.447715 671.443 0 671.995 0H672.005C672.557 0 673.005 0.447715 673.005 1C673.005 1.55228 672.557 2 672.005 2H671.995C671.443 2 670.995 1.55228 670.995 1ZM676.995 1C676.995 0.447715 677.443 0 677.995 0H678.005C678.557 0 679.005 0.447715 679.005 1C679.005 1.55228 678.557 2 678.005 2H677.995C677.443 2 676.995 1.55228 676.995 1ZM682.995 1C682.995 0.447715 683.443 0 683.995 0H684.005C684.557 0 685.005 0.447715 685.005 1C685.005 1.55228 684.557 2 684.005 2H683.995C683.443 2 682.995 1.55228 682.995 1ZM688.995 1C688.995 0.447715 689.443 0 689.995 0H690.005C690.557 0 691.005 0.447715 691.005 1C691.005 1.55228 690.557 2 690.005 2H689.995C689.443 2 688.995 1.55228 688.995 1ZM694.995 1C694.995 0.447715 695.443 0 695.995 0H696.005C696.557 0 697.005 0.447715 697.005 1C697.005 1.55228 696.557 2 696.005 2H695.995C695.443 2 694.995 1.55228 694.995 1ZM700.995 1C700.995 0.447715 701.443 0 701.995 0H702.005C702.557 0 703.005 0.447715 703.005 1C703.005 1.55228 702.557 2 702.005 2H701.995C701.443 2 700.995 1.55228 700.995 1ZM706.995 1C706.995 0.447715 707.443 0 707.995 0H708.005C708.557 0 709.005 0.447715 709.005 1C709.005 1.55228 708.557 2 708.005 2H707.995C707.443 2 706.995 1.55228 706.995 1ZM712.995 1C712.995 0.447715 713.443 0 713.995 0H714.005C714.557 0 715.005 0.447715 715.005 1C715.005 1.55228 714.557 2 714.005 2H713.995C713.443 2 712.995 1.55228 712.995 1ZM718.995 1C718.995 0.447715 719.443 0 719.995 0H720.005C720.557 0 721.005 0.447715 721.005 1C721.005 1.55228 720.557 2 720.005 2H719.995C719.443 2 718.995 1.55228 718.995 1ZM724.995 1C724.995 0.447715 725.443 0 725.995 0H726.005C726.557 0 727.005 0.447715 727.005 1C727.005 1.55228 726.557 2 726.005 2H725.995C725.443 2 724.995 1.55228 724.995 1ZM730.995 1C730.995 0.447715 731.443 0 731.995 0H732.005C732.557 0 733.005 0.447715 733.005 1C733.005 1.55228 732.557 2 732.005 2H731.995C731.443 2 730.995 1.55228 730.995 1ZM736.995 1C736.995 0.447715 737.443 0 737.995 0H738.005C738.557 0 739.005 0.447715 739.005 1C739.005 1.55228 738.557 2 738.005 2H737.995C737.443 2 736.995 1.55228 736.995 1ZM742.995 1C742.995 0.447715 743.443 0 743.995 0H744.005C744.557 0 745.005 0.447715 745.005 1C745.005 1.55228 744.557 2 744.005 2H743.995C743.443 2 742.995 1.55228 742.995 1ZM748.995 1C748.995 0.447715 749.443 0 749.995 0H750.005C750.557 0 751.005 0.447715 751.005 1C751.005 1.55228 750.557 2 750.005 2H749.995C749.443 2 748.995 1.55228 748.995 1ZM754.995 1C754.995 0.447715 755.443 0 755.995 0H756.005C756.557 0 757.005 0.447715 757.005 1C757.005 1.55228 756.557 2 756.005 2H755.995C755.443 2 754.995 1.55228 754.995 1ZM760.995 1C760.995 0.447715 761.443 0 761.995 0H762.005C762.557 0 763.005 0.447715 763.005 1C763.005 1.55228 762.557 2 762.005 2H761.995C761.443 2 760.995 1.55228 760.995 1ZM766.995 1C766.995 0.447715 767.443 0 767.995 0H768.005C768.557 0 769.005 0.447715 769.005 1C769.005 1.55228 768.557 2 768.005 2H767.995C767.443 2 766.995 1.55228 766.995 1ZM772.995 1C772.995 0.447715 773.443 0 773.995 0H774.005C774.557 0 775.005 0.447715 775.005 1C775.005 1.55228 774.557 2 774.005 2H773.995C773.443 2 772.995 1.55228 772.995 1ZM778.995 1C778.995 0.447715 779.443 0 779.995 0H780.005C780.557 0 781.005 0.447715 781.005 1C781.005 1.55228 780.557 2 780.005 2H779.995C779.443 2 778.995 1.55228 778.995 1ZM784.995 1C784.995 0.447715 785.443 0 785.995 0H786.005C786.557 0 787.005 0.447715 787.005 1C787.005 1.55228 786.557 2 786.005 2H785.995C785.443 2 784.995 1.55228 784.995 1ZM790.995 1C790.995 0.447715 791.443 0 791.995 0H792.005C792.557 0 793.005 0.447715 793.005 1C793.005 1.55228 792.557 2 792.005 2H791.995C791.443 2 790.995 1.55228 790.995 1ZM796.995 1C796.995 0.447715 797.443 0 797.995 0H798.005C798.557 0 799.005 0.447715 799.005 1C799.005 1.55228 798.557 2 798.005 2H797.995C797.443 2 796.995 1.55228 796.995 1ZM802.995 1C802.995 0.447715 803.443 0 803.995 0H804.005C804.557 0 805.005 0.447715 805.005 1C805.005 1.55228 804.557 2 804.005 2H803.995C803.443 2 802.995 1.55228 802.995 1ZM808.995 1C808.995 0.447715 809.443 0 809.995 0H810.005C810.557 0 811.005 0.447715 811.005 1C811.005 1.55228 810.557 2 810.005 2H809.995C809.443 2 808.995 1.55228 808.995 1ZM814.995 1C814.995 0.447715 815.443 0 815.995 0H816.005C816.557 0 817.005 0.447715 817.005 1C817.005 1.55228 816.557 2 816.005 2H815.995C815.443 2 814.995 1.55228 814.995 1ZM820.995 1C820.995 0.447715 821.443 0 821.995 0H822.005C822.557 0 823.005 0.447715 823.005 1C823.005 1.55228 822.557 2 822.005 2H821.995C821.443 2 820.995 1.55228 820.995 1ZM826.995 1C826.995 0.447715 827.443 0 827.995 0H828.005C828.557 0 829.005 0.447715 829.005 1C829.005 1.55228 828.557 2 828.005 2H827.995C827.443 2 826.995 1.55228 826.995 1ZM832.995 1C832.995 0.447715 833.443 0 833.995 0H834.005C834.557 0 835.005 0.447715 835.005 1C835.005 1.55228 834.557 2 834.005 2H833.995C833.443 2 832.995 1.55228 832.995 1ZM838.995 1C838.995 0.447715 839.443 0 839.995 0H840.005C840.557 0 841.005 0.447715 841.005 1C841.005 1.55228 840.557 2 840.005 2H839.995C839.443 2 838.995 1.55228 838.995 1ZM844.995 1C844.995 0.447715 845.443 0 845.995 0H846.005C846.557 0 847.005 0.447715 847.005 1C847.005 1.55228 846.557 2 846.005 2H845.995C845.443 2 844.995 1.55228 844.995 1ZM850.995 1C850.995 0.447715 851.443 0 851.995 0H852.005C852.557 0 853.005 0.447715 853.005 1C853.005 1.55228 852.557 2 852.005 2H851.995C851.443 2 850.995 1.55228 850.995 1ZM856.995 1C856.995 0.447715 857.443 0 857.995 0H858.005C858.557 0 859.005 0.447715 859.005 1C859.005 1.55228 858.557 2 858.005 2H857.995C857.443 2 856.995 1.55228 856.995 1ZM862.995 1C862.995 0.447715 863.443 0 863.995 0H864.005C864.557 0 865.005 0.447715 865.005 1C865.005 1.55228 864.557 2 864.005 2H863.995C863.443 2 862.995 1.55228 862.995 1ZM868.995 1C868.995 0.447715 869.443 0 869.995 0H870.005C870.557 0 871.005 0.447715 871.005 1C871.005 1.55228 870.557 2 870.005 2H869.995C869.443 2 868.995 1.55228 868.995 1ZM874.995 1C874.995 0.447715 875.443 0 875.995 0H876.005C876.557 0 877.005 0.447715 877.005 1C877.005 1.55228 876.557 2 876.005 2H875.995C875.443 2 874.995 1.55228 874.995 1ZM880.995 1C880.995 0.447715 881.443 0 881.995 0H882.005C882.557 0 883.005 0.447715 883.005 1C883.005 1.55228 882.557 2 882.005 2H881.995C881.443 2 880.995 1.55228 880.995 1ZM886.995 1C886.995 0.447715 887.443 0 887.995 0H888.005C888.557 0 889.005 0.447715 889.005 1C889.005 1.55228 888.557 2 888.005 2H887.995C887.443 2 886.995 1.55228 886.995 1ZM892.995 1C892.995 0.447715 893.443 0 893.995 0H894.005C894.557 0 895.005 0.447715 895.005 1C895.005 1.55228 894.557 2 894.005 2H893.995C893.443 2 892.995 1.55228 892.995 1ZM898.995 1C898.995 0.447715 899.443 0 899.995 0H900.005C900.557 0 901.005 0.447715 901.005 1C901.005 1.55228 900.557 2 900.005 2H899.995C899.443 2 898.995 1.55228 898.995 1ZM904.995 1C904.995 0.447715 905.443 0 905.995 0H906.005C906.557 0 907.005 0.447715 907.005 1C907.005 1.55228 906.557 2 906.005 2H905.995C905.443 2 904.995 1.55228 904.995 1ZM910.995 1C910.995 0.447715 911.443 0 911.995 0H912.005C912.557 0 913.005 0.447715 913.005 1C913.005 1.55228 912.557 2 912.005 2H911.995C911.443 2 910.995 1.55228 910.995 1ZM916.995 1C916.995 0.447715 917.443 0 917.995 0H918.005C918.557 0 919.005 0.447715 919.005 1C919.005 1.55228 918.557 2 918.005 2H917.995C917.443 2 916.995 1.55228 916.995 1ZM922.995 1C922.995 0.447715 923.443 0 923.995 0H924.005C924.557 0 925.005 0.447715 925.005 1C925.005 1.55228 924.557 2 924.005 2H923.995C923.443 2 922.995 1.55228 922.995 1ZM928.995 1C928.995 0.447715 929.443 0 929.995 0H930.005C930.557 0 931.005 0.447715 931.005 1C931.005 1.55228 930.557 2 930.005 2H929.995C929.443 2 928.995 1.55228 928.995 1ZM934.995 1C934.995 0.447715 935.443 0 935.995 0H936.005C936.557 0 937.005 0.447715 937.005 1C937.005 1.55228 936.557 2 936.005 2H935.995C935.443 2 934.995 1.55228 934.995 1ZM940.995 1C940.995 0.447715 941.443 0 941.995 0H942.005C942.557 0 943.005 0.447715 943.005 1C943.005 1.55228 942.557 2 942.005 2H941.995C941.443 2 940.995 1.55228 940.995 1ZM946.995 1C946.995 0.447715 947.443 0 947.995 0H948.005C948.557 0 949.005 0.447715 949.005 1C949.005 1.55228 948.557 2 948.005 2H947.995C947.443 2 946.995 1.55228 946.995 1ZM952.995 1C952.995 0.447715 953.443 0 953.995 0H954.005C954.557 0 955.005 0.447715 955.005 1C955.005 1.55228 954.557 2 954.005 2H953.995C953.443 2 952.995 1.55228 952.995 1ZM958.995 1C958.995 0.447715 959.443 0 959.995 0H960V2H959.995C959.443 2 958.995 1.55228 958.995 1Z" fill="#E3E4E8"/>
</svg>
