<svg style="display: none;" aria-hidden="true" xmlns="http://www.w3.org/2000/svg" xmlns:xlink="http://www.w3.org/1999/xlink"><symbol viewBox="0 0 16 16" id="arr_left"><path clip-rule="evenodd" d="M8.207 2.707 8.914 2 7.5.586l-.707.707-6 6a1 1 0 0 0 0 1.414l6 6 .707.707L8.914 14l-.707-.707L3.914 9H16V7H3.914l4.293-4.293Z"/></symbol><symbol viewBox="0 0 16 16" id="arr_right"><path clip-rule="evenodd" d="M7.793 13.293 7.086 14 8.5 15.414l.707-.707 6-6a1 1 0 0 0 0-1.414l-6-6L8.5.586 7.086 2l.707.707L12.086 7H0v2h12.086l-4.293 4.293Z"/></symbol><symbol viewBox="0 0 16 16" id="cart"><path clip-rule="evenodd" d="M2.267 2H0V0h2.267a2 2 0 0 1 1.907 1.398L4.838 3.5h10.034a1.1 1.1 0 0 1 1.067 1.367L15 8.627a1.2 1.2 0 0 1-.873.872l-7.7 1.925a1.2 1.2 0 0 1-1.436-.802L2.267 2ZM5 16a2 2 0 1 0 0-4 2 2 0 0 0 0 4Zm7 0a2 2 0 1 0 0-4 2 2 0 0 0 0 4Z"/></symbol><symbol viewBox="0 0 16 16" id="cart-check"><path clip-rule="evenodd" d="M8 0a8 8 0 1 0 7.101 4.313l-.394.394L8.914 10.5a2 2 0 0 1-2.828 0L3.793 8.207 3.086 7.5 4.5 6.086l.707.707L7.5 9.086l5.793-5.793.65-.65A7.98 7.98 0 0 0 8 0Z"/></symbol><symbol viewBox="0 0 16 16" id="closed"><path clip-rule="evenodd" d="M5 4h6V2H5v2ZM2.5 7c0 2.688 2.386 5 5.5 5s5.5-2.312 5.5-5h2c0 3.94-3.435 7-7.5 7C3.935 14 .5 10.94.5 7h2Z"/></symbol><symbol viewBox="0 0 16 16" id="cross"><path clip-rule="evenodd" d="M3.707 2.293 3 1.586 1.586 3l.707.707L6.586 8l-4.293 4.293-.707.707L3 14.414l.707-.707L8 9.414l4.293 4.293.707.707L14.414 13l-.707-.707L9.414 8l4.293-4.293.707-.707L13 1.586l-.707.707L8 6.586 3.707 2.293Z"/></symbol><symbol viewBox="0 0 24 24" id="cup"><path clip-rule="evenodd" d="M2 2v8h.022A5.503 5.503 0 0 0 6.5 14.91V23h2v-8.09a5.502 5.502 0 0 0 4.492-5.114H13V1h-2v8H8.5V1h-2v8H4V1H2v1Zm13 3a4 4 0 0 1 4-4h3v22h-2v-8h-5V5Z"/></symbol><symbol viewBox="0 0 16 4" id="dots"><path clip-rule="evenodd" d="M4 2a2 2 0 1 1-4 0 2 2 0 0 1 4 0Zm6 0a2 2 0 1 1-4 0 2 2 0 0 1 4 0Zm4 2a2 2 0 1 0 0-4 2 2 0 0 0 0 4Z"/></symbol><symbol viewBox="0 0 16 16" id="down"><path clip-rule="evenodd" d="m13.412 6.594-.753.659-4 3.5a1 1 0 0 1-1.317 0l-4-3.5-.752-.659 1.317-1.505.752.658 3.342 2.924 3.341-2.924.753-.658 1.317 1.505Z"/></symbol><symbol viewBox="0 0 16 16" id="download"><path clip-rule="evenodd" d="M16 16H0v-2h6.513L1.827 9.74l-.74-.673 1.346-1.48.74.673L7 11.74V0h2v11.74l3.827-3.48.74-.673 1.345 1.48-.74.673L9.487 14H16v2Z"/></symbol><symbol viewBox="0 0 32 32" id="empty"><path clip-rule="evenodd" d="M30 10H2V6a4 4 0 0 1 4-4h20a4 4 0 0 1 4 4v4ZM2 12h28v14a4 4 0 0 1-4 4h-6a4 4 0 0 0-8 0H6a4 4 0 0 1-4-4V12Z"/></symbol><symbol viewBox="0 0 16 16" id="exit"><path clip-rule="evenodd" d="M7 0v16l7-3V3L7 0ZM6 3H2v10h4V3Z"/></symbol><symbol viewBox="0 0 64 16" id="footer_logo"><path d="M46.56 15.737V0l-2.875.243v15.494h2.876Z"/><path d="M23.958 4.962c-.77.304-1.377.709-1.843 1.236-.303-.527-.749-.932-1.316-1.236-.567-.304-1.276-.466-2.127-.466-.547 0-1.174.122-1.863.365a5.066 5.066 0 0 0-1.762 1.033l-.709-.972H12.82v10.815h2.937v-7.94a5.53 5.53 0 0 1 1.073-.587c.385-.162.77-.243 1.134-.243.608 0 1.074.182 1.398.547.324.365.486.891.486 1.58v6.602h2.916V8.932c0-.142 0-.304-.02-.446-.01-.07-.015-.147-.02-.223-.005-.076-.01-.152-.02-.222.385-.284.79-.527 1.255-.75.466-.223.892-.324 1.317-.324.608 0 1.094.182 1.418.547.324.365.486.891.486 1.58v6.623h2.916V8.951c0-1.235-.324-2.289-.931-3.16-.628-.87-1.661-1.296-3.14-1.296-.607 0-1.296.162-2.066.466Z"/><path clip-rule="evenodd" d="M2.53 14.46C3.604 15.495 5.082 16 6.946 16c.465 0 1.053-.101 1.741-.284.73-.182 1.337-.465 1.843-.85l-.85-2.086c-.527.243-.993.425-1.377.547-.385.121-.83.182-1.317.182-.85 0-1.519-.203-2.045-.628-.507-.425-.83-.992-.973-1.701h7.291v-.891c0-1.52-.405-2.856-1.194-3.97-.79-1.114-2.026-1.681-3.727-1.681-1.681 0-2.997.527-3.97 1.56C1.396 7.25.91 8.627.91 10.348c0 1.722.547 3.079 1.62 4.112Zm5.185-6.845c.385.344.669.891.81 1.62H4.01c.101-.708.364-1.235.77-1.6.405-.364.91-.546 1.498-.546.567 0 1.053.182 1.438.526Z"/><path clip-rule="evenodd" d="M37.65 16c-1.864 0-3.342-.506-4.415-1.54-1.074-1.032-1.62-2.39-1.62-4.11 0-1.722.485-3.1 1.457-4.153.973-1.032 2.29-1.559 3.97-1.559 1.701 0 2.937.567 3.727 1.681s1.195 2.45 1.195 3.97v.89h-7.291c.141.71.465 1.277.972 1.702.526.425 1.195.628 2.045.628.486 0 .932-.06 1.317-.182.385-.122.85-.304 1.377-.547l.85 2.086c-.506.385-1.113.668-1.843.85-.688.183-1.296.284-1.741.284Zm1.58-6.765c-.142-.729-.426-1.276-.81-1.62-.385-.344-.872-.526-1.459-.526-.587 0-1.093.182-1.499.546-.405.365-.668.892-.77 1.6h4.538Z"/><path d="M50.186 12.476c.466 0 .85.162 1.175.466.324.304.486.688.486 1.154 0 .466-.162.85-.486 1.155a1.653 1.653 0 0 1-1.175.466 1.64 1.64 0 0 1-1.154-.466c-.324-.304-.486-.689-.486-1.155 0-.466.162-.85.486-1.154a1.558 1.558 0 0 1 1.154-.466Z"/><path d="M49.052 10.289 48.667.08h3.038l-.344 11.281-2.31-1.073Z"/><path d="M57.963 4.922c-.749.283-1.357.668-1.843 1.154l-.83-1.154h-1.519v10.815h2.896V8.04a7.42 7.42 0 0 1 1.236-.75c.445-.223.87-.324 1.296-.324.607 0 1.093.182 1.418.547.324.365.486.891.486 1.58v6.623h2.896V8.951c0-1.235-.324-2.289-.932-3.16-.628-.87-1.66-1.296-3.14-1.296-.566 0-1.234.142-1.964.426Z"/></symbol><symbol viewBox="0 0 24 24" id="meal"><path clip-rule="evenodd" d="m21.586 23 .707.707 1.414-1.414-22-22L.293 1.707 2 3.414V10h.022A5.503 5.503 0 0 0 6.5 14.91V23h2v-8.09a5.495 5.495 0 0 0 3.171-1.825l8.33 8.33V23h1.585ZM6.5 7.914 4 5.414V9h2.5V7.914Zm2-2.828-2-2V1h2v4.086Zm4.5 4.5-2-2V1h2v8.586Zm2 2L18.414 15H20v1.586l2 2V1h-3a4 4 0 0 0-4 4v6.586Z"/></symbol><symbol viewBox="0 0 16 16" id="minus"><path clip-rule="evenodd" d="M2 7h12v2H2V7Z"/></symbol><symbol viewBox="0 0 16 16" id="opened"><path clip-rule="evenodd" d="M12 6a4 4 0 0 0-.026-.455C12.926 6.455 13.5 7.682 13.5 9h2c0-3.94-3.435-7-7.5-7C3.935 2 .5 5.06.5 9h2c0-1.318.574-2.546 1.526-3.455A4.012 4.012 0 0 0 8 10c2.2 0 4-1.8 4-4Zm-7 6v2h6v-2H5Z"/></symbol><symbol viewBox="0 0 24 24" id="order-check"><path clip-rule="evenodd" d="M12 0C5.373 0 0 5.373 0 12s5.373 12 12 12 12-5.373 12-12S18.627 0 12 0Zm6.682 9.731.731-.682-1.364-1.462-.731.682-6.794 6.34-2.817-2.816L7 11.086 5.586 12.5l.707.707 2.817 2.817a2 2 0 0 0 2.779.048l6.793-6.34Z"/></symbol><symbol viewBox="0 0 16 16" id="plus"><path clip-rule="evenodd" d="M9 3V2H7v5H2v2h5v5h2V9h5V7H9V3Z"/></symbol><symbol viewBox="0 0 32 32" id="reload"><title>reload</title><path d="M0 16q0-2.784 1.088-5.312T4 6.304t4.384-2.912 5.344-1.088q2.784 0 5.312 1.088t4.384 2.912 2.912 4.384T27.424 16h2.304q.736 0 1.28.416t.8 1.024.16 1.28-.64 1.184l-4.576 4.576q-.672.672-1.6.672t-1.632-.672l-4.576-4.576q-.512-.512-.608-1.184t.128-1.28.8-1.024T20.576 16h2.272q0-2.464-1.216-4.576t-3.328-3.328-4.576-1.216T9.12 8.096t-3.328 3.328T4.576 16t1.216 4.608 3.328 3.328 4.608 1.216q1.728 0 3.36-.64l3.424 3.392q-3.136 1.824-6.784 1.824-2.816 0-5.344-1.088T4 25.728t-2.912-4.384T0 16z"/></symbol><symbol viewBox="0 0 16 16" id="right"><g clip-path="url(#atclip0_4019_2028)"><path clip-rule="evenodd" d="m6.595 2.589.659.752 3.5 4a1 1 0 0 1 0 1.317l-3.5 4-.659.753-1.505-1.317.658-.753L8.672 8 5.748 4.658l-.658-.752 1.505-1.317Z"/></g><defs><clipPath id="atclip0_4019_2028"><rect width="16" height="16"/></clipPath></defs></symbol><symbol viewBox="0 0 16 16" id="star"><path clip-rule="evenodd" d="M8.887 3.038a1 1 0 0 0-1.774 0L5.807 5.542l-2.943.405a1 1 0 0 0-.542 1.726l2.096 1.933-.492 2.716a1 1 0 0 0 1.43 1.073L8 12.08l2.645 1.316a1 1 0 0 0 1.43-1.073l-.493-2.716 2.096-1.933a1 1 0 0 0-.542-1.726l-2.943-.405-1.306-2.504Z"/></symbol><symbol viewBox="0 0 16 16" id="table_hotel"><path d="M2 4a2 2 0 0 1 2-2h8a2 2 0 0 1 2 2v3h-2v-.5a.5.5 0 0 0-.5-.5h-2a.5.5 0 0 0-.5.5V7H7v-.5a.5.5 0 0 0-.5-.5h-2a.5.5 0 0 0-.5.5V7H2V4Z"/><path d="M2 8a1 1 0 0 0-1 1v5h2l1-2h8l1 2h2V9a1 1 0 0 0-1-1H2Z"/></symbol><symbol viewBox="0 0 16 16" id="table_plane"><path d="M6 11.286V15H5l-1-3-3-1v-1h3.714L6.5 7.5l.421-.421L1 5.5V4h9l2.586-2.586a1.414 1.414 0 1 1 2 2L12 6v9h-1.5L8.921 9.079 8.5 9.5 6 11.286Z"/></symbol><symbol viewBox="0 0 16 16" id="table_star"><path d="m10.3 5.318-1.778-2.72a.35.35 0 0 1-.05-.166V1.004a.504.504 0 0 0-1.009 0v1.427a.346.346 0 0 1-.049.166l-1.78 2.72a.13.13 0 0 0 .008.144l.454.635a.068.068 0 0 0 .104.01l.002-.003.002-.002a.071.071 0 0 0 .003-.005L7.41 4.418c.03-.039.054-.03.054.02v2.109a.09.09 0 0 1-.09.09h-.215a.09.09 0 0 0-.091.091v.373a.09.09 0 0 0 .09.09h1.621a.09.09 0 0 0 .09-.09v-.375a.09.09 0 0 0-.09-.09h-.216a.09.09 0 0 1-.064-.027.09.09 0 0 1-.026-.064V4.439c0-.022.005-.036.013-.041.01-.006.025 0 .041.022l1.202 1.672a.069.069 0 0 0 .024.02.068.068 0 0 0 .087-.02l.454-.635a.136.136 0 0 0 .024-.068.13.13 0 0 0-.016-.071Z"/><path d="m5.28 5.578-3.135.848a.357.357 0 0 1-.173 0l-1.36-.441a.504.504 0 0 0-.31.954l1.36.44a.363.363 0 0 1 .138.104l2.039 2.539a.127.127 0 0 0 .14.036l.74-.235.004-.001.005-.002a.067.067 0 0 0 .038-.066.063.063 0 0 0-.006-.022.067.067 0 0 0-.01-.016l-1.218-1.67c-.028-.04-.013-.061.035-.046l2.008.652a.09.09 0 0 1 .058.114l-.067.205a.09.09 0 0 0 .057.113l.355.115a.09.09 0 0 0 .113-.057l.502-1.541a.09.09 0 0 0-.058-.114l-.355-.115a.09.09 0 0 0-.095.026.09.09 0 0 0-.018.031L6 7.635a.09.09 0 0 1-.005.012l-.002.004a.09.09 0 0 1-.067.045l-.006.001a.089.089 0 0 1-.034-.004L3.88 7.042c-.02-.007-.03-.015-.034-.024-.004-.012.007-.025.034-.034l1.96-.626a.068.068 0 0 0 .028-.016l.004-.003a.065.065 0 0 0 .014-.024.066.066 0 0 0 .003-.032.068.068 0 0 0-.012-.03l-.461-.626a.126.126 0 0 0-.135-.049Z"/><path d="m3.814 13.674.159-3.246a.13.13 0 0 1 .095-.112l.737-.245a.068.068 0 0 1 .063.01.069.069 0 0 1 .028.058l-.01 2.057c0 .05.025.058.054.018l1.231-1.705a.09.09 0 0 0-.02-.126l-.175-.127a.09.09 0 0 1-.02-.126l.22-.301a.09.09 0 0 1 .125-.02l1.315.953a.09.09 0 0 1 .02.125l-.219.302a.091.091 0 0 1-.126.02l-.175-.128a.09.09 0 0 0-.092-.007.09.09 0 0 0-.033.028l-1.24 1.706c-.03.04-.014.061.033.047l1.96-.647a.07.07 0 0 1 .091.065l-.005.776a.13.13 0 0 1-.078.122l-3.043 1.155a.362.362 0 0 0-.137.105l-.839 1.154a.504.504 0 1 1-.816-.593l.84-1.156a.35.35 0 0 0 .057-.162Z"/><path d="m8.185 13.171 3.038 1.154a.362.362 0 0 1 .137.105l.84 1.156a.503.503 0 0 0 .907-.218.502.502 0 0 0-.09-.375l-.84-1.154a.365.365 0 0 1-.056-.163l-.159-3.248a.132.132 0 0 0-.09-.112l-.738-.245a.069.069 0 0 0-.084.035.069.069 0 0 0-.007.033l.01 2.06a.077.077 0 0 1-.005.03.021.021 0 0 1-.01.01c-.01.005-.024-.002-.04-.024l-1.24-1.706a.09.09 0 0 1 .02-.126l.175-.127a.09.09 0 0 0 .02-.125l-.22-.302a.09.09 0 0 0-.125-.02l-1.311.954a.09.09 0 0 0-.02.125l.22.302a.09.09 0 0 0 .124.02l.175-.128a.085.085 0 0 1 .027-.013.09.09 0 0 1 .1.033l1.238 1.705c.029.04.014.061-.033.047l-1.954-.646a.07.07 0 0 0-.061.01.068.068 0 0 0-.03.054l.006.777a.132.132 0 0 0 .076.122Z"/><path d="m14.132 7.483-2.037 2.53a.129.129 0 0 1-.138.04l-.741-.235a.068.068 0 0 1-.032-.107l1.218-1.659c.028-.04.013-.062-.035-.046l-2.004.651a.091.091 0 0 0-.058.113l.067.206a.09.09 0 0 1-.058.114l-.354.115a.09.09 0 0 1-.114-.058l-.5-1.542a.091.091 0 0 1 .057-.113l.355-.115a.09.09 0 0 1 .113.058l.067.205a.09.09 0 0 0 .113.058l2.006-.652c.046-.015.046-.041 0-.058l-1.962-.626a.07.07 0 0 1-.046-.044.068.068 0 0 1 .009-.063l.46-.624a.128.128 0 0 1 .135-.053l3.137.846a.357.357 0 0 0 .173 0l1.36-.44a.504.504 0 1 1 .31.958l-1.36.442a.351.351 0 0 0-.14.099Z"/></symbol><symbol viewBox="0 0 16 16" id="table_train"><path d="M2 2h8.117a4 4 0 0 1 3.795 2.735l.921 2.765H10.02A5.5 5.5 0 0 0 4.896 4H2V2Z"/><path d="M10.36 8.5h4.807l.175.526A1.5 1.5 0 0 1 13.919 11h-2.725l-.834-2.5Z"/><path d="M9.165 8.077 10.14 11H2V5h2.896a4.5 4.5 0 0 1 4.27 3.077Z"/><path d="M2 12v2h10l-.5-2H2Z"/></symbol><symbol viewBox="0 0 16 16" id="top-right"><path clip-rule="evenodd" d="M4 2H3v2h7.586l-7.793 7.793-.707.707L3.5 13.914l.707-.707L12 5.414V13h2V3a1 1 0 0 0-1-1H4Z"/></symbol><symbol viewBox="0 0 16 16" id="trash"><path clip-rule="evenodd" d="M6 3a1 1 0 0 1 1-1h2a1 1 0 0 1 1 1H6Zm3-3a3 3 0 0 1 3 3h4v2h-2v8a3 3 0 0 1-3 3H5a3 3 0 0 1-3-3V5H0V3h4a3 3 0 0 1 3-3h2ZM5 8a1 1 0 0 1 2 0v4a1 1 0 1 1-2 0V8Zm4 0a1 1 0 0 1 2 0v4a1 1 0 1 1-2 0V8Z"/></symbol></svg>