<svg width="2" height="128" viewBox="0 0 2 128" fill="none" xmlns="http://www.w3.org/2000/svg">
<path fill-rule="evenodd" clip-rule="evenodd" d="M0.00390601 0.005071L0.00390625 8.74228e-08L2.00391 0.000114441L2.00391 0.00518535C2.00387 0.55747 1.55613 1.00516 1.00385 1.00513C0.451564 1.0051 0.00387433 0.557356 0.00390601 0.005071ZM1.00362 5.09022C1.5559 5.09026 2.00359 5.538 2.00356 6.09028L2.00356 6.10042C2.00353 6.65271 1.55579 7.1004 1.0035 7.10037C0.451216 7.10033 0.00352591 6.65259 0.00355747 6.10031L0.00355795 6.09017C0.00358951 5.53788 0.451331 5.09019 1.00362 5.09022ZM1.00327 11.1855C1.55555 11.1855 2.00324 11.6332 2.00321 12.1855L2.00321 12.1957C2.00318 12.7479 1.55544 13.1956 1.00315 13.1956C0.450867 13.1956 0.00317737 12.7478 0.00320893 12.1955L0.00320965 12.1854C0.00324121 11.6331 0.450982 11.1854 1.00327 11.1855ZM1.00292 17.2807C1.5552 17.2807 2.00289 17.7285 2.00286 18.2808L2.00286 18.2909C2.00283 18.8432 1.55509 19.2909 1.0028 19.2908C0.450518 19.2908 0.00282883 18.8431 0.00286039 18.2908L0.00286087 18.2806C0.00289243 17.7284 0.450633 17.2807 1.00292 17.2807ZM1.00257 23.3759C1.55485 23.376 2.00254 23.8237 2.00251 24.376L2.00251 24.3861C2.00248 24.9384 1.55474 25.3861 1.00245 25.3861C0.45017 25.386 0.00248052 24.9383 0.00251209 24.386L0.00251257 24.3759C0.00254413 23.8236 0.450285 23.3759 1.00257 23.3759ZM1.00222 29.4712C1.55451 29.4712 2.0022 29.9189 2.00216 30.4712L2.00216 30.4814C2.00213 31.0337 1.55439 31.4813 1.00211 31.4813C0.449821 31.4813 0.00213175 31.0335 0.00216331 30.4813L0.00216403 30.4711C0.00219559 29.9188 0.449936 29.4711 1.00222 29.4712ZM1.00187 35.5664C1.55416 35.5664 2.00185 36.0142 2.00182 36.5665L2.00181 36.5766C2.00178 37.1289 1.55404 37.5766 1.00176 37.5766C0.449473 37.5765 0.00178344 37.1288 0.00181501 36.5765L0.00181549 36.5664C0.00184705 36.0141 0.449588 35.5664 1.00187 35.5664ZM1.00152 41.6616C1.55381 41.6617 2.0015 42.1094 2.00147 42.6617L2.00147 42.6718C2.00143 43.2241 1.55369 43.6718 1.00141 43.6718C0.449125 43.6718 0.00143479 43.224 0.00146647 42.6717L0.00146695 42.6616C0.00149863 42.1093 0.449239 41.6616 1.00152 41.6616ZM1.00118 47.7569C1.55346 47.7569 2.00115 48.2047 2.00112 48.7569L2.00112 48.7671C2.00109 49.3194 1.55335 49.7671 1.00106 49.767C0.448776 49.767 0.00108636 49.3193 0.00111793 48.767L0.00111841 48.7568C0.00114997 48.2045 0.448891 47.7569 1.00118 47.7569ZM1.00083 53.8521C1.55311 53.8522 2.0008 54.2999 2.00077 54.8522L2.00077 54.8623C2.00074 55.4146 1.553 55.8623 1.00071 55.8623C0.448427 55.8622 0.000737824 55.4145 0.000769391 54.8622L0.000770105 54.8521C0.000801672 54.2998 0.448542 53.8521 1.00083 53.8521ZM1.00048 59.9474C1.55276 59.9474 2.00045 60.3951 2.00042 60.9474L2.00042 60.9576C2.00039 61.5098 1.55265 61.9575 1.00036 61.9575C0.448079 61.9575 0.000389284 61.5097 0.000420851 60.9574L0.000421327 60.9473C0.000452893 60.395 0.448194 59.9473 1.00048 59.9474ZM1.00013 66.0426C1.55241 66.0426 2.0001 66.4904 2.00007 67.0427L2.00007 67.0528C2.00004 67.6051 1.5523 68.0528 1.00002 68.0527C0.447731 68.0527 4.09829e-05 67.605 7.25492e-05 67.0527L7.30256e-05 67.0425C0.000104592 66.4903 0.447845 66.0426 1.00013 66.0426ZM0.999782 72.1378C1.55207 72.1379 1.99976 72.5856 1.99972 73.1379L1.99972 73.148C1.99969 73.7003 1.55195 74.148 0.999667 74.148C0.447382 74.1479 -0.000307795 73.7002 -0.000276229 73.1479L-0.000275514 73.1378C-0.000243948 72.5855 0.447497 72.1378 0.999782 72.1378ZM0.999433 78.2331C1.55172 78.2331 1.99941 78.6809 1.99938 79.2331L1.99938 79.2433C1.99934 79.7956 1.5516 80.2433 0.999318 80.2432C0.447033 80.2432 -0.000656097 79.7954 -0.000624531 79.2432L-0.000624054 79.233C-0.000592488 78.6807 0.447148 78.233 0.999433 78.2331ZM0.999085 84.3283C1.55137 84.3284 1.99906 84.7761 1.99903 85.3284L1.99903 85.3385C1.999 85.8908 1.55125 86.3385 0.99897 86.3385C0.446685 86.3384 -0.00100476 85.8907 -0.000973071 85.3384L-0.000972594 85.3283C-0.000940909 84.776 0.4468 84.3283 0.999085 84.3283ZM0.998736 90.4236C1.55102 90.4236 1.99871 90.8713 1.99868 91.4236L1.99868 91.4338C1.99865 91.986 1.55091 92.4337 0.998621 92.4337C0.446336 92.4337 -0.00135318 91.9859 -0.00132161 91.4336L-0.00132113 91.4235C-0.00128957 90.8712 0.446451 90.4235 0.998736 90.4236ZM0.998388 96.5188C1.55067 96.5188 1.99836 96.9666 1.99833 97.5189L1.99833 97.529C1.9983 98.0813 1.55056 98.529 0.998273 98.5289C0.445988 98.5289 -0.00170172 98.0812 -0.00167015 97.5289L-0.00166944 97.5187C-0.00163787 96.9665 0.446103 96.5188 0.998388 96.5188ZM0.998039 102.614C1.55032 102.614 1.99801 103.062 1.99798 103.614L1.99798 103.624C1.99795 104.177 1.55021 104.624 0.997924 104.624C0.445639 104.624 -0.00205026 104.176 -0.00201869 103.624L-0.00201821 103.614C-0.00198665 103.062 0.445754 102.614 0.998039 102.614ZM0.997691 108.709C1.54998 108.709 1.99766 109.157 1.99763 109.709L1.99763 109.719C1.9976 110.272 1.54986 110.719 0.997576 110.719C0.445291 110.719 -0.00239856 110.272 -0.00236699 109.719L-0.00236652 109.709C-0.00233495 109.157 0.445406 108.709 0.997691 108.709ZM0.997342 114.805C1.54963 114.805 1.99732 115.252 1.99728 115.805L1.99728 115.815C1.99725 116.367 1.54951 116.815 0.997227 116.815C0.444942 116.815 -0.00274734 116.367 -0.00271577 115.815L-0.00271506 115.804C-0.00268349 115.252 0.445057 114.804 0.997342 114.805ZM0.996994 120.9C1.54928 120.9 1.99697 121.348 1.99694 121.9L1.99694 121.91C1.9969 122.462 1.54916 122.91 0.996879 122.91C0.444594 122.91 -0.00309564 122.462 -0.00306407 121.91L-0.0030636 121.9C-0.00303203 121.347 0.444709 120.9 0.996994 120.9ZM0.996645 126.995C1.54893 126.995 1.99662 127.443 1.99659 127.995L1.99659 128L-0.00341237 128L-0.00341214 127.995C-0.00338045 127.443 0.44436 126.995 0.996645 126.995Z" fill="#E3E4E8"/>
</svg>
