<svg width="64" height="16" viewBox="0 0 64 16" fill="none" xmlns="http://www.w3.org/2000/svg">
<path d="M46.5607 15.7367V0L43.6847 0.243038V15.7367H46.5607Z" fill="white"/>
<path d="M23.9584 4.96207C23.1888 5.26587 22.5812 5.67093 22.1154 6.19752C21.8116 5.67093 21.366 5.26587 20.7989 4.96207C20.2319 4.65827 19.523 4.49625 18.6724 4.49625C18.1255 4.49625 17.4977 4.61777 16.8091 4.86081C16.1205 5.10384 15.5331 5.44815 15.047 5.89372L14.3382 4.92156H12.8192V15.7368H15.7559V7.79752C16.1002 7.55448 16.4445 7.3722 16.8293 7.21018C17.2141 7.04815 17.5989 6.96714 17.9635 6.96714C18.5711 6.96714 19.0369 7.14942 19.361 7.51397C19.685 7.87853 19.847 8.40511 19.847 9.09372V15.6963H22.7635V8.9317C22.7635 8.78992 22.7635 8.6279 22.7432 8.48613C22.7331 8.41524 22.7281 8.33929 22.723 8.26334C22.7179 8.18739 22.7129 8.11144 22.7027 8.04056C23.0876 7.75701 23.4926 7.51397 23.9584 7.29119C24.4243 7.0684 24.8496 6.96714 25.2749 6.96714C25.8825 6.96714 26.3686 7.14942 26.6926 7.51397C27.0167 7.87853 27.1787 8.40511 27.1787 9.09372V15.7165H30.0952V8.95195C30.0952 7.71651 29.7711 6.66334 29.1635 5.79245C28.5357 4.92156 27.5028 4.49625 26.0243 4.49625C25.4167 4.49625 24.7281 4.65827 23.9584 4.96207Z" fill="white"/>
<path fill-rule="evenodd" clip-rule="evenodd" d="M2.53041 14.4608C3.60383 15.4937 5.08231 16 6.94561 16C7.41143 16 7.99877 15.8987 8.68738 15.7165C9.4165 15.5342 10.0241 15.2506 10.5304 14.8658L9.67979 12.7797C9.1532 13.0228 8.68738 13.2051 8.30257 13.3266C7.91776 13.4481 7.47219 13.5089 6.98611 13.5089C6.13548 13.5089 5.46712 13.3063 4.94054 12.881C4.43421 12.4557 4.11016 11.8886 3.96839 11.1797H11.2595V10.2886C11.2595 8.76961 10.8545 7.4329 10.0646 6.31898C9.27472 5.20505 8.03928 4.63796 6.33801 4.63796C4.657 4.63796 3.34054 5.16454 2.36839 6.19746C1.39623 7.25062 0.910156 8.62784 0.910156 10.3494C0.910156 12.0709 1.45699 13.4278 2.53041 14.4608ZM7.71523 7.61518C8.10004 7.95948 8.38358 8.50632 8.52535 9.23544H4.00889C4.11016 8.52657 4.37345 7.99999 4.77852 7.63543C5.18358 7.27088 5.68991 7.0886 6.27725 7.0886C6.84434 7.0886 7.33042 7.27088 7.71523 7.61518Z" fill="white"/>
<path fill-rule="evenodd" clip-rule="evenodd" d="M37.6498 16C35.7865 16 34.308 15.4937 33.2346 14.4608C32.1611 13.4278 31.6143 12.0709 31.6143 10.3494C31.6143 8.62784 32.1004 7.25062 33.0725 6.19746C34.0447 5.16454 35.3611 4.63796 37.0422 4.63796C38.7434 4.63796 39.9789 5.20505 40.7687 6.31898C41.5586 7.4329 41.9637 8.76961 41.9637 10.2886V11.1797H34.6725C34.8143 11.8886 35.1384 12.4557 35.6447 12.881C36.1713 13.3063 36.8396 13.5089 37.6903 13.5089C38.1763 13.5089 38.6219 13.4481 39.0067 13.3266C39.3915 13.2051 39.8574 13.0228 40.3839 12.7797L41.2346 14.8658C40.7282 15.2506 40.1207 15.5342 39.3915 15.7165C38.7029 15.8987 38.0953 16 37.6498 16ZM39.2295 9.23544C39.0877 8.50632 38.8042 7.95948 38.4194 7.61518C38.0346 7.27088 37.5485 7.0886 36.9612 7.0886C36.3738 7.0886 35.8675 7.27088 35.4624 7.63543C35.0574 7.99999 34.7941 8.52657 34.6928 9.23544H39.2295Z" fill="white"/>
<path d="M50.186 12.4759C50.6518 12.4759 51.0366 12.638 51.3607 12.9418C51.6847 13.2456 51.8468 13.6304 51.8468 14.0962C51.8468 14.562 51.6847 14.9468 51.3607 15.2506C51.0366 15.5544 50.6518 15.7165 50.186 15.7165C49.7404 15.7165 49.3556 15.5544 49.0316 15.2506C48.7075 14.9468 48.5455 14.562 48.5455 14.0962C48.5455 13.6304 48.7075 13.2456 49.0316 12.9418C49.3556 12.6177 49.7404 12.4759 50.186 12.4759Z" fill="white"/>
<path d="M49.0518 10.2886L48.667 0.080993H51.705L51.3607 11.362L49.0518 10.2886Z" fill="white"/>
<path d="M57.9634 4.92156C57.214 5.20511 56.6064 5.58992 56.1203 6.076L55.29 4.92156H53.771V15.7368H56.6672V8.04056C57.0317 7.75701 57.4571 7.51397 57.9026 7.29119C58.3482 7.0684 58.7735 6.96714 59.1988 6.96714C59.8064 6.96714 60.2925 7.14942 60.6166 7.51397C60.9406 7.87853 61.1026 8.40511 61.1026 9.09372V15.7165H63.9988V8.95195C63.9988 7.71651 63.6748 6.66334 63.0672 5.79245C62.4393 4.92156 61.4064 4.49625 59.9279 4.49625C59.3609 4.49625 58.6925 4.63802 57.9634 4.92156Z" fill="white"/>
</svg>
