<svg width="16" height="16" viewBox="0 0 16 16" fill="none" xmlns="http://www.w3.org/2000/svg">
<mask id="path-1-outside-1_5026_5519" maskUnits="userSpaceOnUse" x="2" y="1" width="12" height="14" fill="black">
<rect fill="white" x="2" y="1" width="12" height="14"/>
<path d="M8 2L8.003 7.9948L13.1962 5L8.006 8L13.1962 11L8.003 8.0052L8 14L7.997 8.0052L2.80385 11L7.994 8L2.80385 5L7.997 7.9948L8 2Z"/>
</mask>
<path d="M8 2L9 1.9995H7L8 2ZM8.003 7.9948L7.003 7.9953L7.00387 9.72536L8.50257 8.86108L8.003 7.9948ZM13.1962 5L13.6966 5.86578L12.6966 4.13372L13.1962 5ZM8.006 8L7.50557 7.13422L6.00773 8L7.50557 8.86578L8.006 8ZM13.1962 11L12.6966 11.8663L13.6966 10.1342L13.1962 11ZM8.003 8.0052L8.50257 7.13892L7.00387 6.27464L7.003 8.0047L8.003 8.0052ZM8 14L7 14.0005H9L8 14ZM7.997 8.0052L8.997 8.0047L8.99613 6.27464L7.49743 7.13892L7.997 8.0052ZM2.80385 11L2.30341 10.1342L3.30341 11.8663L2.80385 11ZM7.994 8L8.49443 8.86578L9.99227 8L8.49443 7.13422L7.994 8ZM2.80385 5L3.30341 4.13372L2.30341 5.86578L2.80385 5ZM7.997 7.9948L7.49743 8.86108L8.99613 9.72536L8.997 7.9953L7.997 7.9948ZM7 2.0005L7.003 7.9953L9.003 7.9943L9 1.9995L7 2.0005ZM8.50257 8.86108L13.6957 5.86628L12.6966 4.13372L7.50343 7.12853L8.50257 8.86108ZM12.6957 4.13422L7.50557 7.13422L8.50643 8.86578L13.6966 5.86578L12.6957 4.13422ZM7.50557 8.86578L12.6957 11.8658L13.6966 10.1342L8.50643 7.13422L7.50557 8.86578ZM13.6957 10.1337L8.50257 7.13892L7.50343 8.87147L12.6966 11.8663L13.6957 10.1337ZM7.003 8.0047L7 13.9995L9 14.0005L9.003 8.0057L7.003 8.0047ZM9 13.9995L8.997 8.0047L6.997 8.0057L7 14.0005L9 13.9995ZM7.49743 7.13892L2.30428 10.1337L3.30341 11.8663L8.49657 8.87147L7.49743 7.13892ZM3.30428 11.8658L8.49443 8.86578L7.49357 7.13422L2.30341 10.1342L3.30428 11.8658ZM8.49443 7.13422L3.30428 4.13422L2.30341 5.86578L7.49357 8.86578L8.49443 7.13422ZM2.30428 5.86628L7.49743 8.86108L8.49657 7.12853L3.30341 4.13372L2.30428 5.86628ZM8.997 7.9953L9 2.0005L7 1.9995L6.997 7.9943L8.997 7.9953Z" fill="#FF3333" mask="url(#path-1-outside-1_5026_5519)"/>
</svg>
