<svg width="16" height="16" viewBox="0 0 16 16" fill="none" xmlns="http://www.w3.org/2000/svg">
<path fill-rule="evenodd" clip-rule="evenodd" d="M8.8867 3.03758C8.71439 2.70719 8.37266 2.5 8.00003 2.5C7.6274 2.5 7.28568 2.70719 7.11337 3.03758L5.8071 5.54229L2.86381 5.94702C2.48042 5.99973 2.16187 6.26893 2.04595 6.63815C1.93003 7.00738 2.03755 7.41034 2.32201 7.67273L4.41806 9.60619L3.92589 12.3217C3.85843 12.6939 4.0068 13.0724 4.30929 13.2996C4.61177 13.5268 5.01658 13.5638 5.35529 13.3953L8.00003 12.0795L10.6448 13.3953C10.9835 13.5638 11.3883 13.5268 11.6908 13.2996C11.9933 13.0724 12.1416 12.6939 12.0742 12.3217L11.582 9.60619L13.6781 7.67273C13.9625 7.41034 14.07 7.00738 13.9541 6.63815C13.8382 6.26893 13.5196 5.99973 13.1363 5.94702L10.193 5.54229L8.8867 3.03758Z" fill="#B9BCC6"/>
</svg>
