<svg width="288" height="24" viewBox="0 0 288 24" fill="none" xmlns="http://www.w3.org/2000/svg">
<path d="M11.9981 23.9956C10.5297 23.9956 9.06366 23.6157 7.75528 22.8582C6.79788 22.3029 5.94488 21.4499 4.24555 19.7506C2.544 18.049 1.691 17.196 1.13789 16.2408C-0.379295 13.6241 -0.379295 10.372 1.13789 7.75528C1.69322 6.79788 2.54622 5.94488 4.24555 4.24555C5.94711 2.54622 6.8001 1.691 7.75528 1.13789C10.372 -0.379295 13.6241 -0.379295 16.2408 1.13789C17.1982 1.69322 18.0512 2.54622 19.7506 4.24555C21.4499 5.9471 22.3051 6.8001 22.8582 7.75528C24.3754 10.372 24.3754 13.6241 22.8582 16.2408C22.3029 17.196 21.4521 18.049 19.755 19.7461C18.0512 21.4499 17.1982 22.3029 16.2408 22.8582C14.9325 23.6179 13.4641 23.9956 11.9981 23.9956ZM11.9981 1.77541C10.8407 1.77541 9.68119 2.0753 8.64826 2.67284C7.89301 3.11044 7.09332 3.91012 5.50284 5.50061C3.91235 7.0911 3.11266 7.88856 2.67506 8.64604C1.47775 10.7119 1.47775 13.2798 2.67506 15.3456C3.11266 16.1009 3.91013 16.8984 5.49839 18.4866C7.09332 20.0815 7.89078 20.879 8.64826 21.3188C10.7141 22.5161 13.282 22.5161 15.3479 21.3188C16.1031 20.8812 16.9028 20.0815 18.4933 18.4911C20.086 16.8984 20.8835 16.1009 21.3211 15.3456C22.5184 13.2798 22.5184 10.7119 21.3211 8.64604C20.8835 7.89078 20.0838 7.0911 18.4933 5.50061C16.9028 3.91012 16.1053 3.11044 15.3501 2.67284C14.3171 2.07307 13.1576 1.77541 12.0003 1.77541H11.9981Z" fill="#FF4453"/>
<path d="M36.3377 15.7921C35.8402 16.6473 35.0183 17.4714 33.37 19.1197C31.7218 20.7679 30.8977 21.5898 30.0424 22.0874C27.6945 23.4491 24.7978 23.4491 22.4499 22.0874C21.5946 21.592 20.7705 20.7679 19.1223 19.1197C17.474 17.4714 16.6499 16.6473 16.1546 15.7921C14.7929 13.4441 14.7929 10.5475 16.1546 8.1995C16.6499 7.34428 17.474 6.52017 19.1223 4.87192C20.7705 3.22368 21.5946 2.39956 22.4499 1.9042C24.7978 0.542513 27.6945 0.542513 30.0424 1.9042C30.8977 2.39956 31.7218 3.22368 33.37 4.87192C35.0183 6.52017 35.8402 7.34428 36.3377 8.1995C37.6994 10.5475 37.6994 13.4441 36.3377 15.7921Z" fill="#FF4453"/>
<path d="M26.2461 23.9956C24.7778 23.9956 23.3117 23.6157 22.0033 22.8582C21.0459 22.3029 20.1929 21.4499 18.4936 19.7506C16.792 18.049 15.939 17.196 15.3859 16.2408C13.8688 13.6241 13.8688 10.372 15.3859 7.75528C15.9413 6.79788 16.7943 5.94488 18.4936 4.24555C20.1952 2.54622 21.0482 1.691 22.0033 1.13789C24.6201 -0.379295 27.8721 -0.379295 30.4889 1.13789C31.4441 1.691 32.2971 2.544 33.9942 4.24111C35.7002 5.94711 36.5532 6.8001 37.1085 7.7575C38.6257 10.3742 38.6257 13.6263 37.1085 16.2431C36.5532 17.2005 35.7002 18.0535 34.0008 19.7528C32.2971 21.4566 31.4441 22.3073 30.4889 22.8627C29.1805 23.6224 27.7122 24 26.2461 24V23.9956ZM26.2461 1.77541C25.0888 1.77541 23.9292 2.0753 22.8963 2.67284C22.1411 3.11044 21.3414 3.91012 19.7509 5.50061C18.1604 7.0911 17.3607 7.88856 16.9231 8.64604C15.7258 10.7119 15.7258 13.2798 16.9231 15.3456C17.3607 16.1009 18.1582 16.8984 19.7464 18.4866C21.3414 20.0815 22.1388 20.879 22.8963 21.3188C24.9622 22.5161 27.53 22.5161 29.5959 21.3188C30.3512 20.8812 31.1486 20.0838 32.7369 18.4955C34.3318 16.9006 35.1293 16.1031 35.5669 15.3479C36.7642 13.282 36.7642 10.7141 35.5669 8.64826C35.1293 7.89301 34.3296 7.09332 32.7391 5.50283C31.1464 3.91013 30.3489 3.11266 29.5937 2.67506C28.5608 2.07529 27.4012 1.77764 26.2439 1.77764L26.2461 1.77541Z" fill="#FF4453"/>
<path d="M27.1365 5.31628H25.355V18.6733H27.1365V5.31628Z" fill="white"/>
<path d="M32.9253 11.1028H19.5684V12.8843H32.9253V11.1028Z" fill="white"/>
<path d="M30.3849 6.5939L20.8442 16.1345L22.104 17.3943L31.6446 7.85363L30.3849 6.5939Z" fill="white"/>
<path d="M22.104 6.59611L20.8442 7.85583L30.3849 17.3965L31.6446 16.1367L22.104 6.59611Z" fill="white"/>
<path d="M274.215 19V5H279.815C281.402 5 282.562 5.34 283.295 6.02C284.042 6.7 284.415 7.60667 284.415 8.74C284.415 9.46 284.228 10.08 283.855 10.6C283.482 11.1067 282.968 11.4733 282.315 11.7C283.142 11.8867 283.795 12.2667 284.275 12.84C284.768 13.4 285.015 14.1333 285.015 15.04C285.015 15.8133 284.848 16.5 284.515 17.1C284.182 17.7 283.655 18.1667 282.935 18.5C282.215 18.8333 281.282 19 280.135 19H274.215ZM276.615 16.92H279.875C280.915 16.92 281.628 16.7533 282.015 16.42C282.415 16.0867 282.615 15.5733 282.615 14.88C282.615 14.2 282.415 13.68 282.015 13.32C281.615 12.9467 280.895 12.76 279.855 12.76H276.615V16.92ZM276.615 10.84H279.515C280.448 10.84 281.095 10.6667 281.455 10.32C281.828 9.97333 282.015 9.50667 282.015 8.92C282.015 8.32 281.835 7.86667 281.475 7.56C281.115 7.24 280.462 7.08 279.515 7.08H276.615V10.84Z" fill="#FF4453"/>
<path d="M264.915 19.22C264.061 19.22 263.248 19.0867 262.475 18.82C261.715 18.5534 261.035 18.14 260.435 17.58C259.835 17.0067 259.361 16.2734 259.015 15.38C258.681 14.4734 258.515 13.38 258.515 12.1V11.7C258.515 10.4734 258.681 9.4267 259.015 8.56003C259.361 7.68003 259.835 6.96003 260.435 6.40003C261.035 5.84003 261.715 5.43336 262.475 5.18003C263.248 4.91336 264.061 4.78003 264.915 4.78003C265.768 4.78003 266.575 4.91336 267.335 5.18003C268.108 5.43336 268.795 5.84003 269.395 6.40003C269.995 6.96003 270.461 7.68003 270.795 8.56003C271.141 9.4267 271.315 10.4734 271.315 11.7V12.1C271.315 13.38 271.141 14.4734 270.795 15.38C270.461 16.2734 269.995 17.0067 269.395 17.58C268.795 18.14 268.108 18.5534 267.335 18.82C266.575 19.0867 265.768 19.22 264.915 19.22ZM264.915 17.1C265.581 17.1 266.208 16.94 266.795 16.62C267.381 16.3 267.861 15.78 268.235 15.06C268.608 14.3267 268.795 13.34 268.795 12.1V11.7C268.795 10.5267 268.608 9.59336 268.235 8.90003C267.861 8.19336 267.381 7.6867 266.795 7.38003C266.208 7.06003 265.581 6.90003 264.915 6.90003C264.248 6.90003 263.615 7.06003 263.015 7.38003C262.428 7.6867 261.948 8.19336 261.575 8.90003C261.215 9.59336 261.035 10.5267 261.035 11.7V12.1C261.035 13.34 261.215 14.3267 261.575 15.06C261.948 15.78 262.428 16.3 263.015 16.62C263.615 16.94 264.248 17.1 264.915 17.1Z" fill="#FF4453"/>
<path d="M250.308 19V7.08H245.608V5H257.408V7.08H252.708V19H250.308Z" fill="#FF4453"/>
<path d="M231.812 19V5H234.212V10.76H241.012V5H243.412V19H241.012V12.84H234.212V19H231.812Z" fill="#FF4453"/>
<path d="M219.508 19V5H228.908V7.08H221.908V10.76H228.308V12.84H221.908V16.92H228.908V19H219.508Z" fill="#FF4453"/>
<path d="M204.312 19V5H206.712V15.2L213.592 5H215.912V19H213.512V8.8L206.632 19H204.312Z" fill="#FF4453"/>
<path d="M189.318 19.22C189.211 19.22 189.091 19.2133 188.958 19.2C188.838 19.2 188.725 19.1867 188.618 19.16V16.88C188.658 16.8933 188.758 16.9 188.918 16.9C189.212 16.9 189.471 16.8467 189.698 16.74C189.925 16.62 190.111 16.4 190.258 16.08C190.418 15.76 190.545 15.2933 190.638 14.68C190.745 14.0667 190.818 13.2667 190.858 12.28C190.898 11.28 190.918 10.0533 190.918 8.6V5H200.718V19H198.318V7.08H193.238V9C193.238 10.7467 193.185 12.22 193.078 13.42C192.972 14.62 192.811 15.6067 192.598 16.38C192.398 17.14 192.138 17.7267 191.818 18.14C191.511 18.5533 191.145 18.84 190.718 19C190.305 19.1467 189.838 19.22 189.318 19.22Z" fill="#FF4453"/>
<path d="M175.621 19V5H178.021V10.86H179.421L184.501 5H187.221L181.321 11.66L187.421 19H184.501L179.421 12.74H178.021V19H175.621Z" fill="#FF4453"/>
<path d="M151.52 19V5.00003H153.92V10.76H156.06C156.166 9.3467 156.48 8.2067 157 7.34003C157.533 6.46003 158.213 5.81336 159.04 5.40003C159.866 4.9867 160.793 4.78003 161.82 4.78003C162.966 4.78003 163.98 5.02003 164.86 5.50003C165.753 5.9667 166.453 6.7067 166.96 7.72003C167.466 8.73336 167.72 10.06 167.72 11.7V12.1C167.72 13.7934 167.466 15.1667 166.96 16.22C166.453 17.26 165.753 18.02 164.86 18.5C163.98 18.98 162.966 19.22 161.82 19.22C160.78 19.22 159.84 19.0067 159 18.58C158.16 18.1534 157.48 17.4734 156.96 16.54C156.44 15.5934 156.14 14.36 156.06 12.84H153.92V19H151.52ZM161.82 17.1C162.46 17.1 163.033 16.94 163.54 16.62C164.046 16.3 164.446 15.78 164.74 15.06C165.046 14.3267 165.2 13.34 165.2 12.1V11.7C165.2 10.5267 165.046 9.59336 164.74 8.90003C164.446 8.19336 164.046 7.6867 163.54 7.38003C163.033 7.06003 162.46 6.90003 161.82 6.90003C161.193 6.90003 160.62 7.06003 160.1 7.38003C159.593 7.6867 159.186 8.19336 158.88 8.90003C158.586 9.59336 158.44 10.5267 158.44 11.7V12.1C158.44 13.34 158.586 14.3267 158.88 15.06C159.186 15.78 159.593 16.3 160.1 16.62C160.62 16.94 161.193 17.1 161.82 17.1Z" fill="#FF4453"/>
<path d="M136.324 19V5H138.724V15.2L145.604 5H147.924V19H145.524V8.8L138.644 19H136.324Z" fill="#FF4453"/>
<path d="M121.129 19V5H123.529V10.76H130.329V5H132.729V19H130.329V12.84H123.529V19H121.129Z" fill="#FF4453"/>
<path d="M106.035 19L111.335 5H113.735L119.035 19H116.475L115.295 15.84H109.615L108.435 19H106.035ZM110.395 13.76H114.515L112.475 8L110.395 13.76Z" fill="#FF4453"/>
<path d="M90.1328 19V5H92.6128L97.0728 13.3L101.533 5H103.933V19H101.533V9.2L97.8328 16.1H96.2328L92.5328 9.2V19H90.1328Z" fill="#FF4453"/>
<path d="M74.9375 19V5H77.3375V15.2L84.2175 5H86.5375V19H84.1375V8.8L77.2575 19H74.9375Z" fill="#FF4453"/>
<path d="M59.7422 19V5H62.1422V10.76H68.9422V5H71.3422V19H68.9422V12.84H62.1422V19H59.7422Z" fill="#FF4453"/>
<path d="M46.2461 19V5H51.8461C53.4328 5 54.5928 5.34 55.3261 6.02C56.0728 6.7 56.4461 7.60667 56.4461 8.74C56.4461 9.46 56.2594 10.08 55.8861 10.6C55.5128 11.1067 54.9994 11.4733 54.3461 11.7C55.1728 11.8867 55.8261 12.2667 56.3061 12.84C56.7994 13.4 57.0461 14.1333 57.0461 15.04C57.0461 15.8133 56.8794 16.5 56.5461 17.1C56.2128 17.7 55.6861 18.1667 54.9661 18.5C54.2461 18.8333 53.3128 19 52.1661 19H46.2461ZM48.6461 16.92H51.9061C52.9461 16.92 53.6594 16.7533 54.0461 16.42C54.4461 16.0867 54.6461 15.5733 54.6461 14.88C54.6461 14.2 54.4461 13.68 54.0461 13.32C53.6461 12.9467 52.9261 12.76 51.8861 12.76H48.6461V16.92ZM48.6461 10.84H51.5461C52.4794 10.84 53.1261 10.6667 53.4861 10.32C53.8594 9.97333 54.0461 9.50667 54.0461 8.92C54.0461 8.32 53.8661 7.86667 53.5061 7.56C53.1461 7.24 52.4928 7.08 51.5461 7.08H48.6461V10.84Z" fill="#FF4453"/>
</svg>
