<svg width="275" height="40" viewBox="0 0 275 40" fill="none" xmlns="http://www.w3.org/2000/svg">
<path d="M61.8489 12.9264C60.9212 11.3308 59.5037 9.90584 56.6687 7.07825C53.8337 4.24324 52.4087 2.81831 50.8205 1.89805C46.4567 -0.632682 41.039 -0.632682 36.6752 1.89805C35.2874 2.69957 34.0331 3.87959 31.8735 6.03182C29.7138 3.87959 28.4522 2.69957 27.0718 1.89805C22.7079 -0.632682 17.2902 -0.632682 12.9264 1.89805C11.3308 2.82573 9.90584 4.24324 7.07825 7.07825C4.24324 9.91326 2.81831 11.3382 1.89805 12.9264C-0.632682 17.2902 -0.632682 22.7079 1.89805 27.0718C2.82573 28.6674 4.24324 30.0923 7.07825 32.9199C9.91326 35.7549 11.3382 37.1798 12.9264 38.1001C15.1083 39.3692 17.5574 40 19.9991 40C22.4407 40 24.8898 39.3692 27.0718 38.1001C28.4596 37.2986 29.7138 36.1186 31.8735 33.9663C34.0331 36.1186 35.2874 37.2986 36.6752 38.1001C38.8571 39.3692 41.3062 40 43.7479 40C46.1895 40 48.6386 39.3692 50.8205 38.1001C52.4162 37.1724 53.8411 35.7549 56.6687 32.9199C59.5037 30.0849 60.9286 28.66 61.8489 27.0718C64.3796 22.7079 64.3796 17.2902 61.8489 12.9264ZM25.58 35.5323C22.1365 37.5286 17.8543 37.5286 14.4107 35.5323C13.149 34.805 11.8206 33.4691 9.17111 30.8196C6.52164 28.1701 5.18577 26.8343 4.45846 25.58C2.46208 22.1365 2.46208 17.8543 4.45846 14.4107C5.18577 13.149 6.52164 11.8206 9.17111 9.17111C11.8206 6.52164 13.1565 5.18577 14.4107 4.45846C16.1325 3.45656 18.0621 2.95932 19.9917 2.95932C21.9212 2.95932 23.8508 3.45656 25.5726 4.45846C26.6487 5.08187 27.7916 6.15799 29.7658 8.12468C27.6135 10.2843 26.4335 11.5386 25.632 12.9264C23.1013 17.2902 23.1013 22.7079 25.632 27.0718C26.4335 28.4522 27.6135 29.7138 29.7658 31.8735C27.7916 33.8402 26.6562 34.9089 25.5726 35.5397L25.58 35.5323ZM42.2636 36.9275C40.8386 36.7345 39.4434 36.2744 38.1669 35.5323C37.0908 34.9089 35.9479 33.8327 33.9812 31.8735C34.5749 31.2872 34.9757 30.9087 35.3319 30.6192C37.3654 28.9642 39.7848 28.0143 42.271 27.7397V36.9349L42.2636 36.9275ZM42.2636 24.7488C39.1168 25.0308 36.0295 26.2183 33.4542 28.3111C33.0015 28.6748 32.5488 29.1127 31.8809 29.7658C29.9142 27.7916 28.8381 26.6562 28.2147 25.5726C27.4725 24.2961 27.005 22.9009 26.8194 21.476H42.271V24.7488H42.2636ZM42.2636 18.5074H26.812C27.005 17.0824 27.4651 15.6872 28.2072 14.4107C28.8307 13.3272 29.9068 12.1917 31.8735 10.2175C32.5414 10.8781 33.0015 11.3085 33.4468 11.6796C36.0221 13.7724 39.1094 14.9599 42.2561 15.2419V18.5148L42.2636 18.5074ZM42.2636 12.251C39.7774 11.9764 37.358 11.0191 35.3245 9.37149C34.9682 9.08205 34.5675 8.70356 33.9738 8.11726C35.9479 6.15798 37.0834 5.08187 38.1595 4.45846C39.436 3.71631 40.8312 3.24876 42.2561 3.06322V12.2585L42.2636 12.251ZM45.2322 3.0558C46.6571 3.24876 48.0523 3.70889 49.3288 4.45104C50.4049 5.07445 51.5479 6.15056 53.5146 8.10984C52.9208 8.69613 52.5201 9.07463 52.1638 9.36407C50.1303 11.0191 47.7109 11.969 45.2247 12.2436V3.04838L45.2322 3.0558ZM45.2322 15.2345C48.3789 14.9525 51.4662 13.765 54.0415 11.6722C54.4942 11.3085 54.9543 10.8706 55.6148 10.2101C57.5815 12.1842 58.6576 13.3271 59.2811 14.4033C60.0232 15.6798 60.4908 17.075 60.6763 18.4999H45.2247V15.2271L45.2322 15.2345ZM49.3288 35.5248C48.0523 36.267 46.6571 36.7345 45.2322 36.9201V27.7249C47.7184 27.9994 50.1378 28.9494 52.1713 30.6044C52.5275 30.8938 52.9208 31.2649 53.522 31.8586C51.5479 33.8179 50.4124 34.894 49.3362 35.5174L49.3288 35.5248ZM59.2811 25.5726C58.6576 26.6562 57.5815 27.7916 55.6148 29.7658C54.9469 29.1053 54.4868 28.6748 54.0415 28.3111C51.4662 26.2183 48.3789 25.0308 45.2322 24.7488V21.476H60.6837C60.4908 22.9009 60.0306 24.2961 59.2885 25.5726H59.2811Z" fill="white"/>
<path d="M85.6873 12.867C85.0639 12.5182 83.8171 11.8131 81.4497 11.8131H74.7109V28.1553H81.4497C82.2363 28.1553 83.8171 28.1553 85.6873 27.1014C86.3107 26.7526 87.5575 26.0476 88.6188 24.1922C88.975 23.5762 89.6801 22.3368 89.6801 20.0139V19.9397C89.6801 19.1678 89.6801 17.6168 88.6188 15.7614C88.2626 15.1454 87.5575 13.906 85.6873 12.8522V12.867ZM86.7263 20.0213C86.7263 20.5334 86.7263 21.5576 86.0436 22.7673C85.8135 23.168 85.3608 23.977 84.1511 24.6449C83.7503 24.8676 82.9414 25.3203 81.4051 25.3203H77.6424V14.6704H81.4051C81.9172 14.6704 82.9414 14.6704 84.1511 15.3384C84.5518 15.561 85.3608 16.0137 86.0436 17.2086C86.2736 17.6093 86.7263 18.4034 86.7263 19.9471V20.0213Z" fill="white"/>
<path d="M92.4844 28.1775H104.819V25.3203H95.4159V21.1717H103.921V18.4109H95.4159V14.6704H104.819V11.8131H92.4844V28.1775Z" fill="white"/>
<path d="M117.057 23.7543L112.025 11.8131H107.973V28.1775H110.904V16.2586L115.936 28.1775H118.081L123.135 16.2586V28.1775H126.066V11.8131H122.088L117.057 23.7543Z" fill="white"/>
<path d="M132.834 11.8131H129.902V28.1775H141.599V25.3203H132.834V11.8131Z" fill="white"/>
<path d="M146.779 11.8131H143.848V28.1775H146.779V11.8131Z" fill="white"/>
<path d="M162.707 23.3684L154.031 11.8131H150.617V28.1775H153.549V15.8653L162.707 28.1775H165.631V11.8131H162.707V23.3684Z" fill="white"/>
<path d="M180.556 28.1775L175.695 21.2162H172.4V28.1775H169.469V11.8131H172.4V18.3812H175.502L180.438 11.8131H183.881L177.974 19.576L184.104 28.1701H180.564L180.556 28.1775Z" fill="white"/>
<path d="M221.128 21.7507C220.467 25.6098 217.343 28.5117 212.897 28.5117C207.843 28.5117 204.496 24.6525 204.496 20.014C204.496 15.3756 207.843 11.4719 212.897 11.4719C217.246 11.4719 220.371 14.3069 221.076 18.0845H218.025C217.387 15.91 215.487 14.2995 212.919 14.3218C209.602 14.344 207.45 16.9564 207.45 19.9844C207.45 23.0123 209.602 25.6247 212.919 25.6247C215.606 25.6247 217.506 23.992 218.07 21.7433H221.12L221.128 21.7507Z" fill="#33CC00"/>
<path d="M222.961 20.0213C222.961 15.3309 226.353 11.4791 231.503 11.4791C236.654 11.4791 240.075 15.3383 240.075 20.0213C240.075 24.7043 236.683 28.5189 231.503 28.5189C226.323 28.5189 222.961 24.682 222.961 20.0213ZM237.121 19.999C237.121 16.9265 234.947 14.3364 231.503 14.3364C228.06 14.3364 225.915 16.9265 225.915 19.999C225.915 23.0715 228.089 25.6616 231.503 25.6616C234.917 25.6616 237.121 23.0493 237.121 19.999Z" fill="#33CC00"/>
<path d="M242.918 28.1779V11.8209H251.223C254.399 11.8209 256.692 13.4536 256.692 16.3851C256.692 17.9213 256.106 19.0717 255.082 19.8064V19.8806C256.373 20.1997 257.011 21.172 257.011 22.7824V28.1779H254.08V23.3465C254.08 22.6637 253.687 22.3223 252.959 22.3223H245.857V28.1853H242.925L242.918 28.1779ZM245.849 19.5838H251.022C252.61 19.5838 253.753 18.6561 253.753 17.1198C253.753 15.5836 252.559 14.6781 251.022 14.6781H245.849V19.5838Z" fill="#33CC00"/>
<path d="M274.029 17.2608C274.029 20.4595 271.536 22.7082 268.389 22.7082H263.357V28.1779H260.426V11.8209H268.389C271.588 11.8209 274.029 14.1364 274.029 17.2682V17.2608ZM268.218 19.9251C269.851 19.9251 271.053 18.8713 271.053 17.2905C271.053 15.7097 269.836 14.6781 268.218 14.6781H263.357V19.9251H268.218Z" fill="#33CC00"/>
<path d="M195.386 19.2051C195.282 19.0269 195.126 18.8711 194.807 18.552C194.488 18.2328 194.332 18.077 194.154 17.9731C193.671 17.6911 193.063 17.6911 192.58 17.9731C192.402 18.077 192.246 18.2328 191.927 18.552C191.608 18.8711 191.452 19.0269 191.348 19.2051C191.066 19.6874 191.066 20.296 191.348 20.7784C191.452 20.9565 191.608 21.1124 191.927 21.4315C192.246 21.7506 192.402 21.9065 192.58 22.0104C192.825 22.1514 193.092 22.2182 193.367 22.2182C193.641 22.2182 193.909 22.1514 194.154 22.0104C194.332 21.9065 194.488 21.7506 194.807 21.4315C195.126 21.1124 195.282 20.9565 195.386 20.7784C195.668 20.296 195.668 19.6874 195.386 19.2051Z" fill="#33CC00"/>
</svg>
