<svg width="184" height="64" viewBox="0 0 184 64" fill="none" xmlns="http://www.w3.org/2000/svg">
<g clip-path="url(#clip0_5004_30617)">
<path d="M125.586 61.0362H122.784L121.414 57.6943H115.207L113.858 61.0362H111.118L116.972 47.1289H119.712L125.586 61.0362ZM118.279 50.0764L116.121 55.4318H120.48L118.279 50.0764Z" fill="#FF4453"/>
<path d="M108.483 47.1289V58.6076H110.351V64.0045H107.985V61.0362H97.8553V64.0045H95.5098V58.6076H95.7173C96.4231 58.6076 97.1288 58.6076 97.4194 57.1754C97.8346 55.3695 97.7515 49.5367 97.7723 47.1289H108.483ZM99.5367 58.6076H105.992V49.5575H100.201C100.18 52.5258 100.139 56.013 99.8273 57.5283C99.7442 57.9434 99.6612 58.2963 99.5367 58.6076Z" fill="#FF4453"/>
<path d="M87.3578 61.3284C82.9988 61.3284 80.0928 58.0695 80.0928 54.1049C80.0928 50.1195 82.978 46.8398 87.3578 46.8398C91.7791 46.8398 94.6436 50.1195 94.6436 54.1049C94.6436 58.0695 91.7583 61.3284 87.3578 61.3284ZM87.3578 58.8998C90.3053 58.8998 92.1319 56.6787 92.1319 54.0841C92.1319 51.4687 90.2845 49.2684 87.3578 49.2684C84.4725 49.2684 82.6044 51.4687 82.6044 54.0841C82.6044 56.6787 84.4518 58.8998 87.3578 58.8998Z" fill="#FF4453"/>
<path d="M72.567 61.0362H70.0762V47.1289H79.7698V49.5575H72.567V61.0362Z" fill="#FF4453"/>
<path d="M60.9225 54.1448L56.5219 58.6076H62.5208V61.0362H52.8271V59.1058L59.2826 52.505C59.7808 52.0484 59.9469 51.4672 59.9469 51.052C59.9469 50.1802 59.2204 49.5575 58.1617 49.5575H52.9725V47.1289H58.1617C60.6941 47.1289 62.417 48.7687 62.417 50.9275C62.417 51.9653 61.898 53.19 60.9225 54.1448Z" fill="#FF4453"/>
<path d="M51.9086 51.4687C51.9086 51.7801 51.867 52.0499 51.8048 52.3405L50.7046 58.3808C50.414 60.0206 49.3554 61.0378 47.3212 61.0378H42.464V58.6092H47.1552C47.8401 58.6092 48.2553 58.3601 48.3798 57.6751L48.8572 55.1635H48.7742C47.9854 55.7239 46.9061 56.056 45.889 56.056C42.6716 56.0975 40.8242 54.1879 40.8242 51.5102C40.8242 48.8118 43.0867 46.8398 46.3249 46.8398C49.7498 46.8398 51.9086 48.8118 51.9086 51.4687ZM49.4384 51.4895C49.4384 50.1817 48.3798 49.2269 46.3249 49.2269C44.4152 49.2269 43.2943 50.1817 43.2943 51.5102C43.2943 52.8594 44.436 53.7935 46.3871 53.7935C48.2553 53.7935 49.4384 52.8387 49.4384 51.4895Z" fill="#FF4453"/>
<path d="M39.3607 51.4687C39.3607 51.7801 39.3192 52.0499 39.2569 52.3405L38.1568 58.3808C37.8662 60.0206 36.8076 61.0378 34.7734 61.0378H29.9162V58.6092H34.6073C35.2923 58.6092 35.7074 58.3601 35.832 57.6751L36.3094 55.1635H36.2264C35.4376 55.7239 34.3582 56.056 33.3411 56.056C30.1238 56.0975 28.2764 54.1879 28.2764 51.5102C28.2764 48.8118 30.5389 46.8398 33.777 46.8398C37.202 46.8398 39.3607 48.8118 39.3607 51.4687ZM36.8906 51.4895C36.8906 50.1817 35.832 49.2269 33.777 49.2269C31.8674 49.2269 30.7465 50.1817 30.7465 51.5102C30.7465 52.8594 31.8881 53.7935 33.8393 53.7935C35.7074 53.7935 36.8906 52.8387 36.8906 51.4895Z" fill="#FF4453"/>
<path d="M26.2214 47.1289V61.0362H23.7306V49.5575H20.3887V47.1289H26.2214Z" fill="#FF4453"/>
<path d="M11.3613 55.5786H13.956C13.3955 58.8582 10.7386 61.3284 6.96078 61.3284C2.66405 61.3284 -0.179688 58.0487 -0.179688 54.1049C-0.179688 50.1402 2.66405 46.8398 6.96078 46.8398C10.6556 46.8398 13.3125 49.2477 13.9144 52.465H11.3198C10.7801 50.6176 9.16104 49.2477 6.98154 49.2684C4.15856 49.2892 2.33193 51.5102 2.33193 54.0841C2.33193 56.6787 4.15856 58.879 6.98154 58.879C9.26483 58.879 10.8839 57.4883 11.3613 55.5786Z" fill="#FF4453"/>
<path d="M181.102 38.2042H170.619V24.2969H181.102V26.7255H173.11V29.9013H180.333V32.2469H173.11V35.7756H181.102V38.2042Z" fill="#FF4453"/>
<path d="M157.623 34.4056L164.908 24.2969H167.379V38.2042H164.908V28.0954L157.623 38.2042H155.132V24.2969H157.623V34.4056Z" fill="#FF4453"/>
<path d="M149.422 29.839V24.2969H151.892V38.2042H149.422V32.2469H142.157V38.2042H139.666V24.2969H142.157V29.839H149.422Z" fill="#FF4453"/>
<path d="M137.931 38.2042H135.128L133.758 34.8623H127.552L126.203 38.2042H123.463L129.316 24.2969H132.056L137.931 38.2042ZM130.624 27.2444L128.465 32.5997H132.824L130.624 27.2444Z" fill="#FF4453"/>
<path d="M120.51 30.8977V30.9599C121.755 31.4996 122.606 32.6413 122.606 34.198C122.606 36.4813 120.821 38.2042 118.455 38.2042H111.003V24.2969H118.164C120.427 24.2969 122.212 25.7706 122.212 28.0124C122.212 29.2371 121.589 30.3165 120.51 30.8977ZM117.894 26.6217H113.494V30.0259H117.894C118.932 30.0259 119.679 29.2578 119.679 28.3238C119.679 27.3689 118.932 26.6217 117.894 26.6217ZM113.494 35.8586H118.226C119.306 35.8586 120.074 35.0906 120.074 34.0735C120.074 33.0564 119.285 32.2676 118.185 32.2676H113.494V35.8586Z" fill="#FF4453"/>
<path d="M98.0075 34.4056L105.293 24.2969H107.763V38.2042H105.293V28.0954L98.0075 38.2042H95.5166V24.2969H98.0075V34.4056Z" fill="#FF4453"/>
<path d="M93.5814 38.2042H90.5923L87.0221 32.2884H84.5105V38.2042H82.0196V32.2884H79.4872L75.8963 38.2042H72.9072L77.4738 30.8977L73.1148 24.2969H76L79.6118 29.8806H82.0196V24.2969H84.5105V29.8806H86.8976L90.5093 24.2969H93.3946L89.0148 30.8977L93.5814 38.2042Z" fill="#FF4453"/>
<path d="M66.5662 32.5172L69.9912 24.2559H72.5651L67.7079 35.7761C67.0644 37.2706 65.985 38.2047 64.3452 38.2047H61.46V35.7761H64.3037C64.7604 35.7761 65.1132 35.61 65.3416 35.2987L59.5088 24.2974H62.311L66.5662 32.5172Z" fill="#FF4453"/>
<path d="M57.653 24.2969V38.2042H55.1829V26.7047H49.3709C49.3501 29.756 49.3086 33.4093 48.9972 34.9453C48.416 38.1419 46.4234 38.2042 45.2817 38.2042H44.4307V35.7341H44.8873C45.6138 35.7341 46.2988 35.7341 46.6102 34.3018C47.0046 32.496 46.9423 26.7047 46.9423 24.2969H57.653Z" fill="#FF4453"/>
<path d="M40.9765 32.7446H43.5712C43.0107 36.0243 40.3538 38.4944 36.576 38.4944C32.2793 38.4944 29.4355 35.2147 29.4355 31.2709C29.4355 27.3063 32.2793 24.0059 36.576 24.0059C40.2708 24.0059 42.9277 26.4137 43.5297 29.6311H40.935C40.3953 27.7837 38.7763 26.4137 36.5968 26.4344C33.7738 26.4552 31.9472 28.6762 31.9472 31.2501C31.9472 33.8448 33.7738 36.045 36.5968 36.045C38.8801 36.045 40.4991 34.6543 40.9765 32.7446Z" fill="#FF4453"/>
<path d="M19.1139 29.4862L23.4106 29.4654C26.1713 29.4654 27.9772 31.3958 27.9772 33.7829C27.9772 36.1907 26.1506 38.2042 23.4106 38.2042H16.623V24.2969H26.6695V26.7255H19.1139V29.4862ZM19.1139 35.7963H23.2238C24.5315 35.7963 25.4656 34.9246 25.4656 33.7621C25.4656 32.6413 24.573 31.7695 23.2238 31.7695H19.1139V35.7963Z" fill="#FF4453"/>
<path d="M7.12732 38.4944C2.76831 38.4944 -0.137695 35.2355 -0.137695 31.2709C-0.137695 27.2855 2.74755 24.0059 7.12732 24.0059C11.5486 24.0059 14.4131 27.2855 14.4131 31.2709C14.4131 35.2355 11.5278 38.4944 7.12732 38.4944ZM7.12732 36.0658C10.0748 36.0658 11.9015 33.8448 11.9015 31.2501C11.9015 28.6347 10.0541 26.4344 7.12732 26.4344C4.24207 26.4344 2.37392 28.6347 2.37392 31.2501C2.37392 33.8448 4.22131 36.0658 7.12732 36.0658Z" fill="#FF4453"/>
<path d="M184 15.3702H173.518V1.46289H184V3.89148H176.008V7.06733H183.232V9.41289H176.008V12.9416H184V15.3702Z" fill="#FF4453"/>
<path d="M164.022 15.6623C159.663 15.6623 156.757 12.4035 156.757 8.43884C156.757 4.45346 159.642 1.17383 164.022 1.17383C168.443 1.17383 171.308 4.45346 171.308 8.43884C171.308 12.4035 168.422 15.6623 164.022 15.6623ZM164.022 13.2337C166.969 13.2337 168.796 11.0127 168.796 8.41808C168.796 5.80268 166.949 3.60242 164.022 3.60242C161.137 3.60242 159.268 5.80268 159.268 8.41808C159.268 11.0127 161.116 13.2337 164.022 13.2337Z" fill="#FF4453"/>
<path d="M151.996 7.00506V1.46289H154.466V15.3702H151.996V9.41289H144.731V15.3702H142.24V1.46289H144.731V7.00506H151.996Z" fill="#FF4453"/>
<path d="M137.861 8.06367V8.12594C139.107 8.66563 139.958 9.80728 139.958 11.3641C139.958 13.6474 138.173 15.3702 135.806 15.3702H128.354V1.46289H135.516C137.778 1.46289 139.563 2.93665 139.563 5.17843C139.563 6.4031 138.941 7.48247 137.861 8.06367ZM135.246 3.78769H130.845V7.19187H135.246C136.284 7.19187 137.031 6.42386 137.031 5.48978C137.031 4.53495 136.284 3.78769 135.246 3.78769ZM130.845 13.0246H135.578C136.657 13.0246 137.425 12.2566 137.425 11.2395C137.425 10.2224 136.637 9.43365 135.536 9.43365H130.845V13.0246Z" fill="#FF4453"/>
<path d="M115.359 11.5716L122.645 1.46289H125.115V15.3702H122.645V5.26145L115.359 15.3702H112.868V1.46289H115.359V11.5716Z" fill="#FF4453"/>
<path d="M98.6953 1.46289H110.838V3.89148H106.002V15.3702H103.532V3.89148H98.6953V1.46289Z" fill="#FF4453"/>
<path d="M99.9638 15.3702H97.1616L95.7917 12.0283H89.5853L88.236 15.3702H85.4961L91.3496 1.46289H94.0896L99.9638 15.3702ZM92.6573 4.41041L90.4986 9.76576H94.8576L92.6573 4.41041Z" fill="#FF4453"/>
<path d="M81.3635 1.46289C84.0827 1.46289 86.1584 3.43482 86.1584 6.09174C86.1584 8.81093 84.0412 10.7206 81.3635 10.7206H77.0875V15.3702H74.5967V1.46289H81.3635ZM77.0875 8.35427H81.2182C82.609 8.35427 83.6261 7.46171 83.6261 6.1125C83.6261 4.8048 82.5882 3.89148 81.2182 3.89148H77.0875V8.35427Z" fill="#FF4453"/>
<path d="M65.1009 15.6623C60.7419 15.6623 57.8359 12.4035 57.8359 8.43884C57.8359 4.45346 60.7212 1.17383 65.1009 1.17383C69.5222 1.17383 72.3867 4.45346 72.3867 8.43884C72.3867 12.4035 69.5015 15.6623 65.1009 15.6623ZM65.1009 13.2337C68.0485 13.2337 69.8751 11.0127 69.8751 8.41808C69.8751 5.80268 68.0277 3.60242 65.1009 3.60242C62.2157 3.60242 60.3476 5.80268 60.3476 8.41808C60.3476 11.0127 62.1949 13.2337 65.1009 13.2337Z" fill="#FF4453"/>
<path d="M55.5431 1.46289V15.3702H53.073V3.87072H45.9118V15.3702H43.4209V1.46289H55.5431Z" fill="#FF4453"/>
<path d="M36.5247 1.46289C39.2438 1.46289 41.3196 3.43482 41.3196 6.09174C41.3196 8.81093 39.2023 10.7206 36.5247 10.7206H32.2487V15.3702H29.7578V1.46289H36.5247ZM32.2487 8.35427H36.3794C37.7701 8.35427 38.7872 7.46171 38.7872 6.1125C38.7872 4.8048 37.7493 3.89148 36.3794 3.89148H32.2487V8.35427Z" fill="#FF4453"/>
<path d="M20.2621 15.6623C15.9031 15.6623 12.9971 12.4035 12.9971 8.43884C12.9971 4.45346 15.8823 1.17383 20.2621 1.17383C24.6834 1.17383 27.5479 4.45346 27.5479 8.43884C27.5479 12.4035 24.6626 15.6623 20.2621 15.6623ZM20.2621 13.2337C23.2096 13.2337 25.0362 11.0127 25.0362 8.41808C25.0362 5.80268 23.1888 3.60242 20.2621 3.60242C17.3768 3.60242 15.5087 5.80268 15.5087 8.41808C15.5087 11.0127 17.3561 13.2337 20.2621 13.2337Z" fill="#FF4453"/>
<path d="M13.0224 15.3702H9.97111L5.86119 9.4544H3.07973V15.3702H0.588867V1.46289H3.07973V7.04657H5.73665L9.95035 1.46289H12.8356L7.81236 8.06367L13.0224 15.3702Z" fill="#FF4453"/>
</g>
<defs>
<clipPath id="clip0_5004_30617">
<rect width="184" height="64" fill="white"/>
</clipPath>
</defs>
</svg>
