<svg width="323" height="64" viewBox="0 0 323 64" fill="none" xmlns="http://www.w3.org/2000/svg">
<g clip-path="url(#clip0_2121_29531)">
<path d="M129.512 35.252L118.492 61.435H123.646L126.187 55.1416H137.871L140.448 61.435H145.72L134.665 35.252H129.512ZM127.909 50.8787L131.97 40.7973L136.114 50.8787H127.909Z" fill="#FF4453"/>
<path d="M143.344 39.8236H152.44V61.435H157.094V39.8236H166.202V35.252H143.344V39.8236Z" fill="#FF4453"/>
<path d="M205.828 35.252L194.809 61.435H199.962L202.503 55.1416H214.188L216.764 61.435H222.037L210.982 35.252H205.828ZM204.225 50.8787L208.286 40.7973L212.43 50.8787H204.225Z" fill="#FF4453"/>
<path d="M244.394 51.163C244.157 52.0892 243.694 53.9416 241.497 55.6515C240.773 56.2215 239.312 57.3733 236.142 57.3733C235.287 57.3733 233.565 57.3733 231.57 56.1383C230.905 55.7227 229.575 54.9034 228.483 52.861C228.115 52.1723 227.39 50.8067 227.39 48.3487C227.39 47.5294 227.39 45.8907 228.483 43.8127C228.851 43.124 229.575 41.7466 231.594 40.5116C232.259 40.096 233.601 39.2767 236.225 39.2767C237.21 39.2767 239.193 39.2767 241.366 40.9629C242.091 41.521 243.539 42.649 244.311 45.297H249.192C249.002 44.2758 248.61 42.2453 246.829 39.8467C246.235 39.0511 245.047 37.4481 242.281 36.0706C241.355 35.6194 239.502 34.7051 236.106 34.7051C234.788 34.7051 232.164 34.7051 229.088 36.5456C228.067 37.1631 226.025 38.3861 224.339 41.5091C223.78 42.554 222.652 44.6321 222.652 48.3844C222.652 49.6193 222.652 52.101 224.339 55.2003C224.897 56.2333 226.013 58.3113 229.088 60.14C230.109 60.7575 232.152 61.9806 236.106 61.9806C237.27 61.9806 239.585 61.9805 242.376 60.5794C243.302 60.1163 245.166 59.1782 246.947 56.7083C247.541 55.889 248.729 54.2503 249.275 51.163H244.394Z" fill="#FF4453"/>
<path d="M152.297 28.1869H172.032V23.6153H156.987V16.9775H170.583V12.5602H156.987V6.57555H172.032V2.00391H152.297V28.1869Z" fill="#FF4453"/>
<path d="M191.495 21.1098L183.444 2.00391H176.961V28.1869H181.639V9.11667L189.69 28.1869H193.134L201.22 9.11667V28.1869H205.911V2.00391H199.546L191.495 21.1098Z" fill="#FF4453"/>
<path d="M245.573 21.0386V2.00391H240.883V28.1869H245.573L259.288 9.1523V28.1869H263.943V2.00391H259.288L245.573 21.0386Z" fill="#FF4453"/>
<path d="M288.401 12.4415H274.722V2.00391H270.031V28.1869H274.722V16.9775H288.401V28.1869H293.056V2.00391H288.401V12.4415Z" fill="#FF4453"/>
<path d="M144.913 2.00391H130.141C126.199 2.00391 123.005 5.18624 122.981 9.12854C122.981 10.886 122.957 12.3109 122.957 12.4059C122.886 15.8494 122.72 19.2574 122.352 20.9198C122.257 21.3354 122.079 22.1666 121.604 22.7604C121.449 22.9503 121.14 23.3422 120.582 23.4847C120.404 23.5322 120.036 23.6153 119.134 23.6153H118.469V28.1869H148.416V23.6153H144.901V2.00391H144.913ZM140.223 23.6153H126.341C126.436 23.3778 126.615 22.9147 126.888 21.5848C127.018 20.9436 127.28 19.673 127.41 15.897C127.434 15.1726 127.481 14.0327 127.517 12.1446C127.529 11.3965 127.541 10.5297 127.565 9.50853C127.588 7.88174 128.918 6.56367 130.545 6.56367H140.223V23.6034V23.6153Z" fill="#FF4453"/>
<path d="M98.9582 20.6822C97.4739 18.1292 95.2059 15.8494 90.6699 11.3252C86.1339 6.7892 83.854 4.5093 81.3129 3.03688C74.3307 -1.01229 65.6624 -1.01229 58.6803 3.03688C56.4598 4.31931 54.453 6.20735 50.9975 9.65092C47.5421 6.20735 45.5235 4.31931 43.3148 3.03688C36.3327 -1.01229 27.6644 -1.01229 20.6822 3.03688C18.1292 4.52117 15.8493 6.7892 11.3252 11.3252C6.78918 15.8612 4.5093 18.1411 3.03688 20.6822C-1.01229 27.6644 -1.01229 36.3327 3.03688 43.3148C4.52117 45.8678 6.78918 48.1477 11.3252 52.6719C15.8612 57.2079 18.1411 59.4877 20.6822 60.9602C24.1733 62.9907 28.0918 64 31.9985 64C35.9052 64 39.8237 62.9907 43.3148 60.9602C45.5353 59.6777 47.5421 57.7897 50.9975 54.3461C54.453 57.7897 56.4598 59.6777 58.6803 60.9602C62.1713 62.9907 66.0899 64 69.9966 64C73.9032 64 77.8218 62.9907 81.3129 60.9602C83.8659 59.4759 86.1458 57.2079 90.6699 52.6719C95.2059 48.1358 97.4858 45.8559 98.9582 43.3148C103.007 36.3327 103.007 27.6644 98.9582 20.6822ZM40.9281 56.8516C35.4183 60.0458 28.5668 60.0458 23.0571 56.8516C21.0385 55.6879 18.9129 53.5505 14.6738 49.3114C10.4346 45.0722 8.29723 42.9348 7.13354 40.9281C3.93933 35.4183 3.93933 28.5668 7.13354 23.0571C8.29723 21.0385 10.4346 18.913 14.6738 14.6738C18.9129 10.4346 21.0503 8.29725 23.0571 7.13356C25.812 5.53051 28.8993 4.73492 31.9866 4.73492C35.074 4.73492 38.1613 5.53051 40.9162 7.13356C42.638 8.131 44.4666 9.85278 47.6252 12.9995C44.1816 16.4549 42.2936 18.4617 41.0112 20.6822C36.962 27.6644 36.962 36.3327 41.0112 43.3148C42.2936 45.5235 44.1816 47.5421 47.6252 50.9976C44.4666 54.1443 42.6498 55.8542 40.9162 56.8635L40.9281 56.8516ZM67.6217 59.084C65.3418 58.7753 63.1094 58.0391 61.067 56.8516C59.3452 55.8542 57.5166 54.1324 54.3699 50.9976C55.3198 50.0595 55.961 49.4539 56.531 48.9908C59.7846 46.3428 63.6556 44.8229 67.6336 44.3835V59.0959L67.6217 59.084ZM67.6217 39.5981C62.5869 40.0494 57.6472 41.9493 53.5268 45.2978C52.8025 45.8797 52.0781 46.5803 51.0094 47.6252C47.8627 44.4666 46.1409 42.6498 45.1435 40.9162C43.956 38.8738 43.2079 36.6414 42.9111 34.3615H67.6336V39.5981H67.6217ZM67.6217 29.6118H42.8992C43.2079 27.3319 43.9442 25.0995 45.1316 23.0571C46.129 21.3235 47.8508 19.5066 50.9975 16.3481C52.0662 17.4049 52.8025 18.0936 53.5149 18.6873C57.6353 22.0359 62.5751 23.9358 67.6098 24.387V29.6237L67.6217 29.6118ZM67.6217 19.6017C63.6438 19.1623 59.7727 17.6305 56.5191 14.9944C55.9492 14.5313 55.3079 13.9257 54.358 12.9876C57.5166 9.85278 59.3334 8.131 61.0552 7.13356C63.0975 5.94612 65.3299 5.19802 67.6098 4.90116V19.6135L67.6217 19.6017ZM72.3715 4.88928C74.6513 5.19801 76.8837 5.93423 78.9261 7.12167C80.6479 8.11912 82.4766 9.84091 85.6233 12.9758C84.6733 13.9138 84.0321 14.5194 83.4621 14.9825C80.2086 17.6305 76.3375 19.1504 72.3596 19.5898V4.87741L72.3715 4.88928ZM72.3715 24.3752C77.4062 23.9239 82.3459 22.024 86.4664 18.6755C87.1907 18.0936 87.9269 17.393 88.9837 16.3362C92.1304 19.4948 93.8522 21.3234 94.8497 23.0452C96.0371 25.0876 96.7852 27.32 97.0821 29.5999H72.3596V24.3633L72.3715 24.3752ZM78.9261 56.8397C76.8837 58.0272 74.6513 58.7753 72.3715 59.0721V44.3598C76.3494 44.7991 80.2204 46.319 83.474 48.967C84.044 49.4301 84.6733 50.0238 85.6351 50.9738C82.4766 54.1086 80.6598 55.8304 78.938 56.8279L78.9261 56.8397ZM94.8497 40.9162C93.8522 42.6498 92.1304 44.4666 88.9837 47.6252C87.915 46.5684 87.1788 45.8797 86.4664 45.2978C82.3459 41.9493 77.4062 40.0494 72.3715 39.5981V34.3615H97.0939C96.7852 36.6414 96.049 38.8738 94.8616 40.9162H94.8497Z" fill="#FF4453"/>
<path d="M316.889 28.1869L309.111 17.0488H303.839V28.1869H299.148V2.00391H303.839V12.5128H308.802L316.699 2.00391H322.208L312.756 14.4245L322.565 28.1751H316.901L316.889 28.1869Z" fill="#FF4453"/>
<path d="M234.862 28.1871H230.207V6.54008H221.871C220.434 6.54008 219.259 7.70376 219.235 9.14056C219.223 10.3636 219.199 11.3967 219.187 12.2754C219.152 14.2584 219.104 15.4459 219.08 16.2058C218.938 20.1362 218.689 21.4068 218.558 22.048C218.047 24.8266 217.252 25.7172 216.86 26.1685C215.673 27.5221 214.818 27.7358 214.402 27.8546C213.131 28.1871 212.086 28.1871 211.564 28.1871H209.961V23.5323H210.816C211.718 23.5323 212.075 23.4373 212.265 23.3898C212.811 23.2474 213.131 22.8674 213.298 22.6655C213.784 22.0836 213.963 21.2406 214.058 20.825C214.438 19.0557 214.58 15.5052 214.639 12.1092C214.639 11.4323 214.663 10.2449 214.663 8.91496C214.675 5.07953 217.786 1.99219 221.622 1.99219H234.838V28.1752L234.862 28.1871Z" fill="#FF4453"/>
<path d="M191.483 61.4351H186.828V39.7881H178.492C177.055 39.7881 175.88 40.9518 175.856 42.3886C175.844 43.6117 175.82 44.6448 175.808 45.5235C175.773 47.5065 175.725 48.6939 175.702 49.4539C175.559 53.3843 175.31 54.6549 175.179 55.2961C174.668 58.0747 173.873 58.9653 173.481 59.4165C172.294 60.7702 171.439 60.9839 171.023 61.1027C169.752 61.4351 168.708 61.4351 168.185 61.4351H166.582V56.7804H167.437C168.339 56.7804 168.696 56.6854 168.886 56.6379C169.432 56.4954 169.752 56.1154 169.919 55.9136C170.406 55.3317 170.584 54.4886 170.679 54.073C171.059 52.3038 171.201 48.7533 171.261 45.3572C171.261 44.6804 171.284 43.493 171.284 42.163C171.296 38.3276 174.407 35.2402 178.243 35.2402H191.459V61.4233L191.483 61.4351Z" fill="#FF4453"/>
</g>
<defs>
<clipPath id="clip0_2121_29531">
<rect width="322.565" height="64" fill="white"/>
</clipPath>
</defs>
</svg>
