<svg width="154" height="120" viewBox="0 0 154 120" fill="none" xmlns="http://www.w3.org/2000/svg">
<path d="M118.876 18.0575C117.58 15.8285 115.6 13.8379 111.639 9.88795C107.679 5.9276 105.689 3.93702 103.47 2.65146C97.3739 -0.883821 89.8057 -0.883821 83.7096 2.65146C81.7709 3.77114 80.0188 5.41956 77.0019 8.42611C73.985 5.41956 72.2226 3.77114 70.2942 2.65146C64.1982 -0.883821 56.63 -0.883821 50.534 2.65146C48.305 3.94739 46.3144 5.9276 42.3645 9.88795C38.4041 13.8483 36.4136 15.8388 35.128 18.0575C31.5927 24.1535 31.5927 31.7217 35.128 37.8177C36.4239 40.0467 38.4041 42.0372 42.3645 45.9872C46.3248 49.9476 48.3154 51.9381 50.534 53.2236C53.582 54.9965 57.0032 55.8777 60.4141 55.8777C63.825 55.8777 67.2462 54.9965 70.2942 53.2236C72.2329 52.104 73.985 50.4555 77.0019 47.449C80.0188 50.4555 81.7709 52.104 83.7096 53.2236C86.7576 54.9965 90.1789 55.8777 93.5898 55.8777C97.0006 55.8777 100.422 54.9965 103.47 53.2236C105.699 51.9277 107.689 49.9476 111.639 45.9872C115.6 42.0269 117.59 40.0363 118.876 37.8177C122.411 31.7217 122.411 24.1535 118.876 18.0575ZM68.2104 49.6365C63.3999 52.4253 57.4179 52.4253 52.6075 49.6365C50.845 48.6205 48.9892 46.7544 45.2881 43.0532C41.5869 39.3521 39.7208 37.4859 38.7048 35.7339C35.9159 30.9234 35.9159 24.9414 38.7048 20.1309C39.7208 18.3685 41.5869 16.5127 45.2881 12.8116C48.9892 9.1104 50.8554 7.24423 52.6075 6.22822C55.0127 4.82863 57.7082 4.13399 60.4037 4.13399C63.0993 4.13399 65.7948 4.82863 68.2 6.22822C69.7033 7.09909 71.2999 8.60236 74.0576 11.3497C71.051 14.3666 69.4026 16.1188 68.2829 18.0575C64.7477 24.1535 64.7477 31.7217 68.2829 37.8177C69.4026 39.746 71.051 41.5085 74.0576 44.5254C71.2999 47.2727 69.7137 48.7656 68.2 49.6469L68.2104 49.6365ZM91.5163 51.5856C89.5257 51.316 87.5767 50.6732 85.7935 49.6365C84.2902 48.7656 82.6936 47.2624 79.9463 44.5254C80.7757 43.7064 81.3355 43.1776 81.8331 42.7733C84.6738 40.4614 88.0536 39.1343 91.5266 38.7507V51.596L91.5163 51.5856ZM91.5163 34.5727C87.1205 34.9667 82.8077 36.6254 79.2102 39.549C78.5778 40.057 77.9454 40.6687 77.0123 41.5811C74.2649 38.8233 72.7617 37.2371 71.8908 35.7235C70.8541 33.9403 70.2009 31.9912 69.9417 30.0007H91.5266V34.5727H91.5163ZM91.5163 25.8537H69.9314C70.2009 23.8632 70.8437 21.9141 71.8804 20.1309C72.7513 18.6173 74.2546 17.0311 77.0019 14.2733C77.935 15.196 78.5778 15.7973 79.1998 16.3157C82.7973 19.2393 87.1101 20.8981 91.5059 21.2921V25.8641L91.5163 25.8537ZM91.5163 17.114C88.0432 16.7304 84.6634 15.393 81.8228 13.0914C81.3251 12.6871 80.7653 12.1584 79.9359 11.3393C82.6936 8.60235 84.2798 7.09909 85.7831 6.22822C87.5663 5.19149 89.5154 4.53833 91.5059 4.27915V17.1244L91.5163 17.114ZM95.6632 4.26877C97.6538 4.53832 99.6028 5.18111 101.386 6.21785C102.889 7.08871 104.486 8.59197 107.233 11.329C106.404 12.148 105.844 12.6767 105.346 13.0811C102.506 15.393 99.1259 16.72 95.6529 17.1036V4.25846L95.6632 4.26877ZM95.6632 21.2817C100.059 20.8877 104.372 19.229 107.969 16.3054C108.602 15.7974 109.245 15.1857 110.167 14.263C112.915 17.0207 114.418 18.6173 115.289 20.1206C116.325 21.9038 116.979 23.8528 117.238 25.8433H95.6529V21.2713L95.6632 21.2817ZM101.386 49.6261C99.6028 50.6629 97.6538 51.316 95.6632 51.5752V38.73C99.1363 39.1136 102.516 40.4406 105.357 42.7525C105.854 43.1569 106.404 43.6752 107.244 44.5046C104.486 47.2416 102.9 48.7449 101.396 49.6158L101.386 49.6261ZM115.289 35.7235C114.418 37.2371 112.915 38.8233 110.167 41.5811C109.234 40.6584 108.591 40.057 107.969 39.549C104.372 36.6254 100.059 34.9667 95.6632 34.5727V30.0007H117.248C116.979 31.9912 116.336 33.9403 115.299 35.7235H115.289Z" fill="white"/>
<path d="M15.9271 72.6521C15.0563 72.1648 13.3145 71.1799 10.0073 71.1799H0.59375V94.0089H10.0073C11.1063 94.0089 13.3145 94.0089 15.9271 92.5367C16.798 92.0495 18.5397 91.0646 20.0222 88.4727C20.5199 87.6122 21.5048 85.8809 21.5048 82.6359V82.5322C21.5048 81.454 21.5048 79.2872 20.0222 76.6954C19.5246 75.8349 18.5397 74.1035 15.9271 72.6313V72.6521ZM17.3786 82.6463C17.3786 83.3616 17.3786 84.7923 16.4248 86.4822C16.1034 87.0421 15.471 88.1721 13.7811 89.1051C13.2212 89.4162 12.0912 90.0382 9.94514 90.0382H4.68887V75.161H9.94514C10.6605 75.161 12.0912 75.161 13.7811 76.0941C14.3409 76.4051 15.471 77.0375 16.4248 78.7067C16.7462 79.2665 17.3786 80.3758 17.3786 82.5322V82.6359V82.6463Z" fill="white"/>
<path d="M25.4336 94.04H42.6642V90.0486H29.5287V84.2532H41.3994V80.3965H29.5287V75.1817H42.6642V71.1903H25.4336V94.04Z" fill="white"/>
<path d="M59.7522 87.8714L52.7231 71.1903H47.0625V94.04H51.1576V77.39L58.1867 94.04H61.1829L68.2535 77.39V94.04H72.3486V71.1903H66.7813L59.7522 87.8714Z" fill="white"/>
<path d="M81.7904 71.1903H77.6953V94.04H94.0343V90.0486H81.7904V71.1903Z" fill="white"/>
<path d="M101.271 71.1903H97.1758V94.0504H101.271V71.1903Z" fill="white"/>
<path d="M123.521 87.322L111.412 71.1903H106.633V94.04H110.728V76.8509L123.521 94.04H127.616V71.1903H123.521V87.322Z" fill="white"/>
<path d="M144.846 82.0346L153.098 71.1903H148.288L141.394 80.3654H137.06V71.1903H132.965V94.04H137.06V84.3258H141.673L148.454 94.04H153.409L144.846 82.0346Z" fill="white"/>
<path d="M59.9509 113.686C59.3392 117.294 56.4156 120 52.2583 120C47.5411 120 44.4102 116.392 44.4102 112.058C44.4102 107.725 47.5307 104.076 52.2583 104.076C56.3223 104.076 59.2355 106.719 59.899 110.255H57.048C56.4571 108.223 54.6739 106.719 52.279 106.74C49.1792 106.761 47.1679 109.207 47.1679 112.038C47.1679 114.868 49.1792 117.304 52.279 117.304C54.7879 117.304 56.5711 115.78 57.0895 113.676H59.9405L59.9509 113.686Z" fill="#33CC00"/>
<path d="M61.7344 112.058C61.7344 107.683 64.9068 104.076 69.7173 104.076C74.5277 104.076 77.7209 107.683 77.7209 112.058C77.7209 116.434 74.5485 120 69.7173 120C64.8861 120 61.7344 116.423 61.7344 112.058ZM74.9632 112.038C74.9632 109.166 72.9312 106.74 69.7173 106.74C66.5034 106.74 64.4921 109.156 64.4921 112.038C64.4921 114.92 66.5241 117.325 69.7173 117.325C72.9104 117.325 74.9632 114.889 74.9632 112.038Z" fill="#33CC00"/>
<path d="M80.457 119.679V104.397H88.2118C91.1769 104.397 93.323 105.921 93.323 108.658C93.323 110.099 92.7735 111.167 91.8197 111.851V111.924C93.0327 112.224 93.6236 113.137 93.6236 114.64V119.679H90.8866V115.158C90.8866 114.516 90.5238 114.205 89.8395 114.205H83.2044V119.679H80.4674H80.457ZM83.194 111.644H88.0356C89.5181 111.644 90.586 110.773 90.586 109.342C90.586 107.912 89.4663 107.061 88.0356 107.061H83.194V111.644Z" fill="#33CC00"/>
<path d="M109.591 109.487C109.591 112.473 107.268 114.578 104.324 114.578H99.6276V119.689H96.8906V104.407H104.324C107.31 104.407 109.591 106.574 109.591 109.498V109.487ZM104.158 111.976C105.682 111.976 106.802 110.991 106.802 109.508C106.802 108.026 105.661 107.072 104.158 107.072H99.6172V111.976H104.158Z" fill="#33CC00"/>
</svg>
